%TF.GenerationSoftware,KiCad,Pcbnew,9.0.5*%
%TF.CreationDate,2026-08-17T03:38:29-04:00*%
%TF.ProjectId,ytTut,79745475-742e-46b6-9963-61645f706362,rev?*%
%TF.SameCoordinates,Original*%
%TF.FileFunction,Legend,Top*%
%TF.FilePolarity,Positive*%
%FSLAX46Y46*%
G04 Gerber Fmt 4.6, Leading zero omitted, Abs format (unit mm)*
G04 Created by KiCad (PCBNEW 9.0.5) date 2026-08-17 03:38:29*
%MOMM*%
%LPD*%
G01*
G04 APERTURE LIST*
%ADD10C,0.200000*%
%ADD11C,0.150000*%
%ADD12C,0.120000*%
G04 APERTURE END LIST*
D10*
X106940149Y-71807219D02*
X107130625Y-71807219D01*
X107130625Y-71807219D02*
X107225863Y-71854838D01*
X107225863Y-71854838D02*
X107321101Y-71950076D01*
X107321101Y-71950076D02*
X107368720Y-72140552D01*
X107368720Y-72140552D02*
X107368720Y-72473885D01*
X107368720Y-72473885D02*
X107321101Y-72664361D01*
X107321101Y-72664361D02*
X107225863Y-72759600D01*
X107225863Y-72759600D02*
X107130625Y-72807219D01*
X107130625Y-72807219D02*
X106940149Y-72807219D01*
X106940149Y-72807219D02*
X106844911Y-72759600D01*
X106844911Y-72759600D02*
X106749673Y-72664361D01*
X106749673Y-72664361D02*
X106702054Y-72473885D01*
X106702054Y-72473885D02*
X106702054Y-72140552D01*
X106702054Y-72140552D02*
X106749673Y-71950076D01*
X106749673Y-71950076D02*
X106844911Y-71854838D01*
X106844911Y-71854838D02*
X106940149Y-71807219D01*
X107797292Y-72807219D02*
X107797292Y-71807219D01*
X107797292Y-71807219D02*
X108368720Y-72807219D01*
X108368720Y-72807219D02*
X108368720Y-71807219D01*
X79193409Y-55806993D02*
X79241028Y-55664136D01*
X79241028Y-55664136D02*
X79288647Y-55616517D01*
X79288647Y-55616517D02*
X79383885Y-55568898D01*
X79383885Y-55568898D02*
X79526742Y-55568898D01*
X79526742Y-55568898D02*
X79621980Y-55616517D01*
X79621980Y-55616517D02*
X79669600Y-55664136D01*
X79669600Y-55664136D02*
X79717219Y-55759374D01*
X79717219Y-55759374D02*
X79717219Y-56140326D01*
X79717219Y-56140326D02*
X78717219Y-56140326D01*
X78717219Y-56140326D02*
X78717219Y-55806993D01*
X78717219Y-55806993D02*
X78764838Y-55711755D01*
X78764838Y-55711755D02*
X78812457Y-55664136D01*
X78812457Y-55664136D02*
X78907695Y-55616517D01*
X78907695Y-55616517D02*
X79002933Y-55616517D01*
X79002933Y-55616517D02*
X79098171Y-55664136D01*
X79098171Y-55664136D02*
X79145790Y-55711755D01*
X79145790Y-55711755D02*
X79193409Y-55806993D01*
X79193409Y-55806993D02*
X79193409Y-56140326D01*
X78717219Y-54949850D02*
X78717219Y-54759374D01*
X78717219Y-54759374D02*
X78764838Y-54664136D01*
X78764838Y-54664136D02*
X78860076Y-54568898D01*
X78860076Y-54568898D02*
X79050552Y-54521279D01*
X79050552Y-54521279D02*
X79383885Y-54521279D01*
X79383885Y-54521279D02*
X79574361Y-54568898D01*
X79574361Y-54568898D02*
X79669600Y-54664136D01*
X79669600Y-54664136D02*
X79717219Y-54759374D01*
X79717219Y-54759374D02*
X79717219Y-54949850D01*
X79717219Y-54949850D02*
X79669600Y-55045088D01*
X79669600Y-55045088D02*
X79574361Y-55140326D01*
X79574361Y-55140326D02*
X79383885Y-55187945D01*
X79383885Y-55187945D02*
X79050552Y-55187945D01*
X79050552Y-55187945D02*
X78860076Y-55140326D01*
X78860076Y-55140326D02*
X78764838Y-55045088D01*
X78764838Y-55045088D02*
X78717219Y-54949850D01*
X78717219Y-53902231D02*
X78717219Y-53711755D01*
X78717219Y-53711755D02*
X78764838Y-53616517D01*
X78764838Y-53616517D02*
X78860076Y-53521279D01*
X78860076Y-53521279D02*
X79050552Y-53473660D01*
X79050552Y-53473660D02*
X79383885Y-53473660D01*
X79383885Y-53473660D02*
X79574361Y-53521279D01*
X79574361Y-53521279D02*
X79669600Y-53616517D01*
X79669600Y-53616517D02*
X79717219Y-53711755D01*
X79717219Y-53711755D02*
X79717219Y-53902231D01*
X79717219Y-53902231D02*
X79669600Y-53997469D01*
X79669600Y-53997469D02*
X79574361Y-54092707D01*
X79574361Y-54092707D02*
X79383885Y-54140326D01*
X79383885Y-54140326D02*
X79050552Y-54140326D01*
X79050552Y-54140326D02*
X78860076Y-54092707D01*
X78860076Y-54092707D02*
X78764838Y-53997469D01*
X78764838Y-53997469D02*
X78717219Y-53902231D01*
X78717219Y-53187945D02*
X78717219Y-52616517D01*
X79717219Y-52902231D02*
X78717219Y-52902231D01*
X106089197Y-57326623D02*
X106089197Y-58338528D01*
X106089197Y-58338528D02*
X106148720Y-58457576D01*
X106148720Y-58457576D02*
X106208244Y-58517100D01*
X106208244Y-58517100D02*
X106327292Y-58576623D01*
X106327292Y-58576623D02*
X106565387Y-58576623D01*
X106565387Y-58576623D02*
X106684435Y-58517100D01*
X106684435Y-58517100D02*
X106743958Y-58457576D01*
X106743958Y-58457576D02*
X106803482Y-58338528D01*
X106803482Y-58338528D02*
X106803482Y-57326623D01*
X107339197Y-58517100D02*
X107517768Y-58576623D01*
X107517768Y-58576623D02*
X107815387Y-58576623D01*
X107815387Y-58576623D02*
X107934435Y-58517100D01*
X107934435Y-58517100D02*
X107993959Y-58457576D01*
X107993959Y-58457576D02*
X108053482Y-58338528D01*
X108053482Y-58338528D02*
X108053482Y-58219480D01*
X108053482Y-58219480D02*
X107993959Y-58100433D01*
X107993959Y-58100433D02*
X107934435Y-58040909D01*
X107934435Y-58040909D02*
X107815387Y-57981385D01*
X107815387Y-57981385D02*
X107577292Y-57921861D01*
X107577292Y-57921861D02*
X107458244Y-57862338D01*
X107458244Y-57862338D02*
X107398721Y-57802814D01*
X107398721Y-57802814D02*
X107339197Y-57683766D01*
X107339197Y-57683766D02*
X107339197Y-57564719D01*
X107339197Y-57564719D02*
X107398721Y-57445671D01*
X107398721Y-57445671D02*
X107458244Y-57386147D01*
X107458244Y-57386147D02*
X107577292Y-57326623D01*
X107577292Y-57326623D02*
X107874911Y-57326623D01*
X107874911Y-57326623D02*
X108053482Y-57386147D01*
X109005863Y-57921861D02*
X109184435Y-57981385D01*
X109184435Y-57981385D02*
X109243958Y-58040909D01*
X109243958Y-58040909D02*
X109303482Y-58159957D01*
X109303482Y-58159957D02*
X109303482Y-58338528D01*
X109303482Y-58338528D02*
X109243958Y-58457576D01*
X109243958Y-58457576D02*
X109184435Y-58517100D01*
X109184435Y-58517100D02*
X109065387Y-58576623D01*
X109065387Y-58576623D02*
X108589197Y-58576623D01*
X108589197Y-58576623D02*
X108589197Y-57326623D01*
X108589197Y-57326623D02*
X109005863Y-57326623D01*
X109005863Y-57326623D02*
X109124911Y-57386147D01*
X109124911Y-57386147D02*
X109184435Y-57445671D01*
X109184435Y-57445671D02*
X109243958Y-57564719D01*
X109243958Y-57564719D02*
X109243958Y-57683766D01*
X109243958Y-57683766D02*
X109184435Y-57802814D01*
X109184435Y-57802814D02*
X109124911Y-57862338D01*
X109124911Y-57862338D02*
X109005863Y-57921861D01*
X109005863Y-57921861D02*
X108589197Y-57921861D01*
X80039197Y-77866623D02*
X80039197Y-76616623D01*
X80574911Y-76735671D02*
X80634435Y-76676147D01*
X80634435Y-76676147D02*
X80753482Y-76616623D01*
X80753482Y-76616623D02*
X81051101Y-76616623D01*
X81051101Y-76616623D02*
X81170149Y-76676147D01*
X81170149Y-76676147D02*
X81229673Y-76735671D01*
X81229673Y-76735671D02*
X81289196Y-76854719D01*
X81289196Y-76854719D02*
X81289196Y-76973766D01*
X81289196Y-76973766D02*
X81229673Y-77152338D01*
X81229673Y-77152338D02*
X80515387Y-77866623D01*
X80515387Y-77866623D02*
X81289196Y-77866623D01*
X82539196Y-77747576D02*
X82479672Y-77807100D01*
X82479672Y-77807100D02*
X82301101Y-77866623D01*
X82301101Y-77866623D02*
X82182053Y-77866623D01*
X82182053Y-77866623D02*
X82003482Y-77807100D01*
X82003482Y-77807100D02*
X81884434Y-77688052D01*
X81884434Y-77688052D02*
X81824911Y-77569004D01*
X81824911Y-77569004D02*
X81765387Y-77330909D01*
X81765387Y-77330909D02*
X81765387Y-77152338D01*
X81765387Y-77152338D02*
X81824911Y-76914242D01*
X81824911Y-76914242D02*
X81884434Y-76795195D01*
X81884434Y-76795195D02*
X82003482Y-76676147D01*
X82003482Y-76676147D02*
X82182053Y-76616623D01*
X82182053Y-76616623D02*
X82301101Y-76616623D01*
X82301101Y-76616623D02*
X82479672Y-76676147D01*
X82479672Y-76676147D02*
X82539196Y-76735671D01*
X82529197Y-52036623D02*
X82529197Y-53048528D01*
X82529197Y-53048528D02*
X82588720Y-53167576D01*
X82588720Y-53167576D02*
X82648244Y-53227100D01*
X82648244Y-53227100D02*
X82767292Y-53286623D01*
X82767292Y-53286623D02*
X83005387Y-53286623D01*
X83005387Y-53286623D02*
X83124435Y-53227100D01*
X83124435Y-53227100D02*
X83183958Y-53167576D01*
X83183958Y-53167576D02*
X83243482Y-53048528D01*
X83243482Y-53048528D02*
X83243482Y-52036623D01*
X83779197Y-52929480D02*
X84374435Y-52929480D01*
X83660149Y-53286623D02*
X84076816Y-52036623D01*
X84076816Y-52036623D02*
X84493482Y-53286623D01*
X85624435Y-53286623D02*
X85207769Y-52691385D01*
X84910150Y-53286623D02*
X84910150Y-52036623D01*
X84910150Y-52036623D02*
X85386340Y-52036623D01*
X85386340Y-52036623D02*
X85505388Y-52096147D01*
X85505388Y-52096147D02*
X85564911Y-52155671D01*
X85564911Y-52155671D02*
X85624435Y-52274719D01*
X85624435Y-52274719D02*
X85624435Y-52453290D01*
X85624435Y-52453290D02*
X85564911Y-52572338D01*
X85564911Y-52572338D02*
X85505388Y-52631861D01*
X85505388Y-52631861D02*
X85386340Y-52691385D01*
X85386340Y-52691385D02*
X84910150Y-52691385D01*
X85981578Y-52036623D02*
X86695864Y-52036623D01*
X86338721Y-53286623D02*
X86338721Y-52036623D01*
X102419673Y-53307100D02*
X102598244Y-53366623D01*
X102598244Y-53366623D02*
X102895863Y-53366623D01*
X102895863Y-53366623D02*
X103014911Y-53307100D01*
X103014911Y-53307100D02*
X103074435Y-53247576D01*
X103074435Y-53247576D02*
X103133958Y-53128528D01*
X103133958Y-53128528D02*
X103133958Y-53009480D01*
X103133958Y-53009480D02*
X103074435Y-52890433D01*
X103074435Y-52890433D02*
X103014911Y-52830909D01*
X103014911Y-52830909D02*
X102895863Y-52771385D01*
X102895863Y-52771385D02*
X102657768Y-52711861D01*
X102657768Y-52711861D02*
X102538720Y-52652338D01*
X102538720Y-52652338D02*
X102479197Y-52592814D01*
X102479197Y-52592814D02*
X102419673Y-52473766D01*
X102419673Y-52473766D02*
X102419673Y-52354719D01*
X102419673Y-52354719D02*
X102479197Y-52235671D01*
X102479197Y-52235671D02*
X102538720Y-52176147D01*
X102538720Y-52176147D02*
X102657768Y-52116623D01*
X102657768Y-52116623D02*
X102955387Y-52116623D01*
X102955387Y-52116623D02*
X103133958Y-52176147D01*
X103550625Y-52116623D02*
X103848244Y-53366623D01*
X103848244Y-53366623D02*
X104086339Y-52473766D01*
X104086339Y-52473766D02*
X104324434Y-53366623D01*
X104324434Y-53366623D02*
X104622054Y-52116623D01*
X105098244Y-53366623D02*
X105098244Y-52116623D01*
X105098244Y-52116623D02*
X105395863Y-52116623D01*
X105395863Y-52116623D02*
X105574434Y-52176147D01*
X105574434Y-52176147D02*
X105693482Y-52295195D01*
X105693482Y-52295195D02*
X105753005Y-52414242D01*
X105753005Y-52414242D02*
X105812529Y-52652338D01*
X105812529Y-52652338D02*
X105812529Y-52830909D01*
X105812529Y-52830909D02*
X105753005Y-53069004D01*
X105753005Y-53069004D02*
X105693482Y-53188052D01*
X105693482Y-53188052D02*
X105574434Y-53307100D01*
X105574434Y-53307100D02*
X105395863Y-53366623D01*
X105395863Y-53366623D02*
X105098244Y-53366623D01*
D11*
X102248095Y-77054819D02*
X102248095Y-77864342D01*
X102248095Y-77864342D02*
X102295714Y-77959580D01*
X102295714Y-77959580D02*
X102343333Y-78007200D01*
X102343333Y-78007200D02*
X102438571Y-78054819D01*
X102438571Y-78054819D02*
X102629047Y-78054819D01*
X102629047Y-78054819D02*
X102724285Y-78007200D01*
X102724285Y-78007200D02*
X102771904Y-77959580D01*
X102771904Y-77959580D02*
X102819523Y-77864342D01*
X102819523Y-77864342D02*
X102819523Y-77054819D01*
X103248095Y-77150057D02*
X103295714Y-77102438D01*
X103295714Y-77102438D02*
X103390952Y-77054819D01*
X103390952Y-77054819D02*
X103629047Y-77054819D01*
X103629047Y-77054819D02*
X103724285Y-77102438D01*
X103724285Y-77102438D02*
X103771904Y-77150057D01*
X103771904Y-77150057D02*
X103819523Y-77245295D01*
X103819523Y-77245295D02*
X103819523Y-77340533D01*
X103819523Y-77340533D02*
X103771904Y-77483390D01*
X103771904Y-77483390D02*
X103200476Y-78054819D01*
X103200476Y-78054819D02*
X103819523Y-78054819D01*
X102857142Y-72309580D02*
X102809523Y-72357200D01*
X102809523Y-72357200D02*
X102666666Y-72404819D01*
X102666666Y-72404819D02*
X102571428Y-72404819D01*
X102571428Y-72404819D02*
X102428571Y-72357200D01*
X102428571Y-72357200D02*
X102333333Y-72261961D01*
X102333333Y-72261961D02*
X102285714Y-72166723D01*
X102285714Y-72166723D02*
X102238095Y-71976247D01*
X102238095Y-71976247D02*
X102238095Y-71833390D01*
X102238095Y-71833390D02*
X102285714Y-71642914D01*
X102285714Y-71642914D02*
X102333333Y-71547676D01*
X102333333Y-71547676D02*
X102428571Y-71452438D01*
X102428571Y-71452438D02*
X102571428Y-71404819D01*
X102571428Y-71404819D02*
X102666666Y-71404819D01*
X102666666Y-71404819D02*
X102809523Y-71452438D01*
X102809523Y-71452438D02*
X102857142Y-71500057D01*
X103809523Y-72404819D02*
X103238095Y-72404819D01*
X103523809Y-72404819D02*
X103523809Y-71404819D01*
X103523809Y-71404819D02*
X103428571Y-71547676D01*
X103428571Y-71547676D02*
X103333333Y-71642914D01*
X103333333Y-71642914D02*
X103238095Y-71690533D01*
X104428571Y-71404819D02*
X104523809Y-71404819D01*
X104523809Y-71404819D02*
X104619047Y-71452438D01*
X104619047Y-71452438D02*
X104666666Y-71500057D01*
X104666666Y-71500057D02*
X104714285Y-71595295D01*
X104714285Y-71595295D02*
X104761904Y-71785771D01*
X104761904Y-71785771D02*
X104761904Y-72023866D01*
X104761904Y-72023866D02*
X104714285Y-72214342D01*
X104714285Y-72214342D02*
X104666666Y-72309580D01*
X104666666Y-72309580D02*
X104619047Y-72357200D01*
X104619047Y-72357200D02*
X104523809Y-72404819D01*
X104523809Y-72404819D02*
X104428571Y-72404819D01*
X104428571Y-72404819D02*
X104333333Y-72357200D01*
X104333333Y-72357200D02*
X104285714Y-72309580D01*
X104285714Y-72309580D02*
X104238095Y-72214342D01*
X104238095Y-72214342D02*
X104190476Y-72023866D01*
X104190476Y-72023866D02*
X104190476Y-71785771D01*
X104190476Y-71785771D02*
X104238095Y-71595295D01*
X104238095Y-71595295D02*
X104285714Y-71500057D01*
X104285714Y-71500057D02*
X104333333Y-71452438D01*
X104333333Y-71452438D02*
X104428571Y-71404819D01*
X105461905Y-77554819D02*
X105461905Y-76554819D01*
X105461905Y-76554819D02*
X105700000Y-76554819D01*
X105700000Y-76554819D02*
X105842857Y-76602438D01*
X105842857Y-76602438D02*
X105938095Y-76697676D01*
X105938095Y-76697676D02*
X105985714Y-76792914D01*
X105985714Y-76792914D02*
X106033333Y-76983390D01*
X106033333Y-76983390D02*
X106033333Y-77126247D01*
X106033333Y-77126247D02*
X105985714Y-77316723D01*
X105985714Y-77316723D02*
X105938095Y-77411961D01*
X105938095Y-77411961D02*
X105842857Y-77507200D01*
X105842857Y-77507200D02*
X105700000Y-77554819D01*
X105700000Y-77554819D02*
X105461905Y-77554819D01*
X106985714Y-77554819D02*
X106414286Y-77554819D01*
X106700000Y-77554819D02*
X106700000Y-76554819D01*
X106700000Y-76554819D02*
X106604762Y-76697676D01*
X106604762Y-76697676D02*
X106509524Y-76792914D01*
X106509524Y-76792914D02*
X106414286Y-76840533D01*
X92758095Y-68564819D02*
X92758095Y-69374342D01*
X92758095Y-69374342D02*
X92805714Y-69469580D01*
X92805714Y-69469580D02*
X92853333Y-69517200D01*
X92853333Y-69517200D02*
X92948571Y-69564819D01*
X92948571Y-69564819D02*
X93139047Y-69564819D01*
X93139047Y-69564819D02*
X93234285Y-69517200D01*
X93234285Y-69517200D02*
X93281904Y-69469580D01*
X93281904Y-69469580D02*
X93329523Y-69374342D01*
X93329523Y-69374342D02*
X93329523Y-68564819D01*
X94329523Y-69564819D02*
X93758095Y-69564819D01*
X94043809Y-69564819D02*
X94043809Y-68564819D01*
X94043809Y-68564819D02*
X93948571Y-68707676D01*
X93948571Y-68707676D02*
X93853333Y-68802914D01*
X93853333Y-68802914D02*
X93758095Y-68850533D01*
X84063333Y-59359580D02*
X84015714Y-59407200D01*
X84015714Y-59407200D02*
X83872857Y-59454819D01*
X83872857Y-59454819D02*
X83777619Y-59454819D01*
X83777619Y-59454819D02*
X83634762Y-59407200D01*
X83634762Y-59407200D02*
X83539524Y-59311961D01*
X83539524Y-59311961D02*
X83491905Y-59216723D01*
X83491905Y-59216723D02*
X83444286Y-59026247D01*
X83444286Y-59026247D02*
X83444286Y-58883390D01*
X83444286Y-58883390D02*
X83491905Y-58692914D01*
X83491905Y-58692914D02*
X83539524Y-58597676D01*
X83539524Y-58597676D02*
X83634762Y-58502438D01*
X83634762Y-58502438D02*
X83777619Y-58454819D01*
X83777619Y-58454819D02*
X83872857Y-58454819D01*
X83872857Y-58454819D02*
X84015714Y-58502438D01*
X84015714Y-58502438D02*
X84063333Y-58550057D01*
X85015714Y-59454819D02*
X84444286Y-59454819D01*
X84730000Y-59454819D02*
X84730000Y-58454819D01*
X84730000Y-58454819D02*
X84634762Y-58597676D01*
X84634762Y-58597676D02*
X84539524Y-58692914D01*
X84539524Y-58692914D02*
X84444286Y-58740533D01*
X83166666Y-73431009D02*
X82833333Y-73431009D01*
X82833333Y-73954819D02*
X82833333Y-72954819D01*
X82833333Y-72954819D02*
X83309523Y-72954819D01*
X84023809Y-73431009D02*
X84166666Y-73478628D01*
X84166666Y-73478628D02*
X84214285Y-73526247D01*
X84214285Y-73526247D02*
X84261904Y-73621485D01*
X84261904Y-73621485D02*
X84261904Y-73764342D01*
X84261904Y-73764342D02*
X84214285Y-73859580D01*
X84214285Y-73859580D02*
X84166666Y-73907200D01*
X84166666Y-73907200D02*
X84071428Y-73954819D01*
X84071428Y-73954819D02*
X83690476Y-73954819D01*
X83690476Y-73954819D02*
X83690476Y-72954819D01*
X83690476Y-72954819D02*
X84023809Y-72954819D01*
X84023809Y-72954819D02*
X84119047Y-73002438D01*
X84119047Y-73002438D02*
X84166666Y-73050057D01*
X84166666Y-73050057D02*
X84214285Y-73145295D01*
X84214285Y-73145295D02*
X84214285Y-73240533D01*
X84214285Y-73240533D02*
X84166666Y-73335771D01*
X84166666Y-73335771D02*
X84119047Y-73383390D01*
X84119047Y-73383390D02*
X84023809Y-73431009D01*
X84023809Y-73431009D02*
X83690476Y-73431009D01*
X85214285Y-73954819D02*
X84642857Y-73954819D01*
X84928571Y-73954819D02*
X84928571Y-72954819D01*
X84928571Y-72954819D02*
X84833333Y-73097676D01*
X84833333Y-73097676D02*
X84738095Y-73192914D01*
X84738095Y-73192914D02*
X84642857Y-73240533D01*
X79833333Y-72359580D02*
X79785714Y-72407200D01*
X79785714Y-72407200D02*
X79642857Y-72454819D01*
X79642857Y-72454819D02*
X79547619Y-72454819D01*
X79547619Y-72454819D02*
X79404762Y-72407200D01*
X79404762Y-72407200D02*
X79309524Y-72311961D01*
X79309524Y-72311961D02*
X79261905Y-72216723D01*
X79261905Y-72216723D02*
X79214286Y-72026247D01*
X79214286Y-72026247D02*
X79214286Y-71883390D01*
X79214286Y-71883390D02*
X79261905Y-71692914D01*
X79261905Y-71692914D02*
X79309524Y-71597676D01*
X79309524Y-71597676D02*
X79404762Y-71502438D01*
X79404762Y-71502438D02*
X79547619Y-71454819D01*
X79547619Y-71454819D02*
X79642857Y-71454819D01*
X79642857Y-71454819D02*
X79785714Y-71502438D01*
X79785714Y-71502438D02*
X79833333Y-71550057D01*
X80404762Y-71883390D02*
X80309524Y-71835771D01*
X80309524Y-71835771D02*
X80261905Y-71788152D01*
X80261905Y-71788152D02*
X80214286Y-71692914D01*
X80214286Y-71692914D02*
X80214286Y-71645295D01*
X80214286Y-71645295D02*
X80261905Y-71550057D01*
X80261905Y-71550057D02*
X80309524Y-71502438D01*
X80309524Y-71502438D02*
X80404762Y-71454819D01*
X80404762Y-71454819D02*
X80595238Y-71454819D01*
X80595238Y-71454819D02*
X80690476Y-71502438D01*
X80690476Y-71502438D02*
X80738095Y-71550057D01*
X80738095Y-71550057D02*
X80785714Y-71645295D01*
X80785714Y-71645295D02*
X80785714Y-71692914D01*
X80785714Y-71692914D02*
X80738095Y-71788152D01*
X80738095Y-71788152D02*
X80690476Y-71835771D01*
X80690476Y-71835771D02*
X80595238Y-71883390D01*
X80595238Y-71883390D02*
X80404762Y-71883390D01*
X80404762Y-71883390D02*
X80309524Y-71931009D01*
X80309524Y-71931009D02*
X80261905Y-71978628D01*
X80261905Y-71978628D02*
X80214286Y-72073866D01*
X80214286Y-72073866D02*
X80214286Y-72264342D01*
X80214286Y-72264342D02*
X80261905Y-72359580D01*
X80261905Y-72359580D02*
X80309524Y-72407200D01*
X80309524Y-72407200D02*
X80404762Y-72454819D01*
X80404762Y-72454819D02*
X80595238Y-72454819D01*
X80595238Y-72454819D02*
X80690476Y-72407200D01*
X80690476Y-72407200D02*
X80738095Y-72359580D01*
X80738095Y-72359580D02*
X80785714Y-72264342D01*
X80785714Y-72264342D02*
X80785714Y-72073866D01*
X80785714Y-72073866D02*
X80738095Y-71978628D01*
X80738095Y-71978628D02*
X80690476Y-71931009D01*
X80690476Y-71931009D02*
X80595238Y-71883390D01*
X79833333Y-70859580D02*
X79785714Y-70907200D01*
X79785714Y-70907200D02*
X79642857Y-70954819D01*
X79642857Y-70954819D02*
X79547619Y-70954819D01*
X79547619Y-70954819D02*
X79404762Y-70907200D01*
X79404762Y-70907200D02*
X79309524Y-70811961D01*
X79309524Y-70811961D02*
X79261905Y-70716723D01*
X79261905Y-70716723D02*
X79214286Y-70526247D01*
X79214286Y-70526247D02*
X79214286Y-70383390D01*
X79214286Y-70383390D02*
X79261905Y-70192914D01*
X79261905Y-70192914D02*
X79309524Y-70097676D01*
X79309524Y-70097676D02*
X79404762Y-70002438D01*
X79404762Y-70002438D02*
X79547619Y-69954819D01*
X79547619Y-69954819D02*
X79642857Y-69954819D01*
X79642857Y-69954819D02*
X79785714Y-70002438D01*
X79785714Y-70002438D02*
X79833333Y-70050057D01*
X80166667Y-69954819D02*
X80833333Y-69954819D01*
X80833333Y-69954819D02*
X80404762Y-70954819D01*
X82423333Y-68219580D02*
X82375714Y-68267200D01*
X82375714Y-68267200D02*
X82232857Y-68314819D01*
X82232857Y-68314819D02*
X82137619Y-68314819D01*
X82137619Y-68314819D02*
X81994762Y-68267200D01*
X81994762Y-68267200D02*
X81899524Y-68171961D01*
X81899524Y-68171961D02*
X81851905Y-68076723D01*
X81851905Y-68076723D02*
X81804286Y-67886247D01*
X81804286Y-67886247D02*
X81804286Y-67743390D01*
X81804286Y-67743390D02*
X81851905Y-67552914D01*
X81851905Y-67552914D02*
X81899524Y-67457676D01*
X81899524Y-67457676D02*
X81994762Y-67362438D01*
X81994762Y-67362438D02*
X82137619Y-67314819D01*
X82137619Y-67314819D02*
X82232857Y-67314819D01*
X82232857Y-67314819D02*
X82375714Y-67362438D01*
X82375714Y-67362438D02*
X82423333Y-67410057D01*
X83280476Y-67314819D02*
X83090000Y-67314819D01*
X83090000Y-67314819D02*
X82994762Y-67362438D01*
X82994762Y-67362438D02*
X82947143Y-67410057D01*
X82947143Y-67410057D02*
X82851905Y-67552914D01*
X82851905Y-67552914D02*
X82804286Y-67743390D01*
X82804286Y-67743390D02*
X82804286Y-68124342D01*
X82804286Y-68124342D02*
X82851905Y-68219580D01*
X82851905Y-68219580D02*
X82899524Y-68267200D01*
X82899524Y-68267200D02*
X82994762Y-68314819D01*
X82994762Y-68314819D02*
X83185238Y-68314819D01*
X83185238Y-68314819D02*
X83280476Y-68267200D01*
X83280476Y-68267200D02*
X83328095Y-68219580D01*
X83328095Y-68219580D02*
X83375714Y-68124342D01*
X83375714Y-68124342D02*
X83375714Y-67886247D01*
X83375714Y-67886247D02*
X83328095Y-67791009D01*
X83328095Y-67791009D02*
X83280476Y-67743390D01*
X83280476Y-67743390D02*
X83185238Y-67695771D01*
X83185238Y-67695771D02*
X82994762Y-67695771D01*
X82994762Y-67695771D02*
X82899524Y-67743390D01*
X82899524Y-67743390D02*
X82851905Y-67791009D01*
X82851905Y-67791009D02*
X82804286Y-67886247D01*
X75443809Y-67868628D02*
X75443809Y-68344819D01*
X75110476Y-67344819D02*
X75443809Y-67868628D01*
X75443809Y-67868628D02*
X75777142Y-67344819D01*
X76634285Y-68344819D02*
X76062857Y-68344819D01*
X76348571Y-68344819D02*
X76348571Y-67344819D01*
X76348571Y-67344819D02*
X76253333Y-67487676D01*
X76253333Y-67487676D02*
X76158095Y-67582914D01*
X76158095Y-67582914D02*
X76062857Y-67630533D01*
X92833333Y-74954819D02*
X92500000Y-74478628D01*
X92261905Y-74954819D02*
X92261905Y-73954819D01*
X92261905Y-73954819D02*
X92642857Y-73954819D01*
X92642857Y-73954819D02*
X92738095Y-74002438D01*
X92738095Y-74002438D02*
X92785714Y-74050057D01*
X92785714Y-74050057D02*
X92833333Y-74145295D01*
X92833333Y-74145295D02*
X92833333Y-74288152D01*
X92833333Y-74288152D02*
X92785714Y-74383390D01*
X92785714Y-74383390D02*
X92738095Y-74431009D01*
X92738095Y-74431009D02*
X92642857Y-74478628D01*
X92642857Y-74478628D02*
X92261905Y-74478628D01*
X93738095Y-73954819D02*
X93261905Y-73954819D01*
X93261905Y-73954819D02*
X93214286Y-74431009D01*
X93214286Y-74431009D02*
X93261905Y-74383390D01*
X93261905Y-74383390D02*
X93357143Y-74335771D01*
X93357143Y-74335771D02*
X93595238Y-74335771D01*
X93595238Y-74335771D02*
X93690476Y-74383390D01*
X93690476Y-74383390D02*
X93738095Y-74431009D01*
X93738095Y-74431009D02*
X93785714Y-74526247D01*
X93785714Y-74526247D02*
X93785714Y-74764342D01*
X93785714Y-74764342D02*
X93738095Y-74859580D01*
X93738095Y-74859580D02*
X93690476Y-74907200D01*
X93690476Y-74907200D02*
X93595238Y-74954819D01*
X93595238Y-74954819D02*
X93357143Y-74954819D01*
X93357143Y-74954819D02*
X93261905Y-74907200D01*
X93261905Y-74907200D02*
X93214286Y-74859580D01*
X86603333Y-74624819D02*
X86270000Y-74148628D01*
X86031905Y-74624819D02*
X86031905Y-73624819D01*
X86031905Y-73624819D02*
X86412857Y-73624819D01*
X86412857Y-73624819D02*
X86508095Y-73672438D01*
X86508095Y-73672438D02*
X86555714Y-73720057D01*
X86555714Y-73720057D02*
X86603333Y-73815295D01*
X86603333Y-73815295D02*
X86603333Y-73958152D01*
X86603333Y-73958152D02*
X86555714Y-74053390D01*
X86555714Y-74053390D02*
X86508095Y-74101009D01*
X86508095Y-74101009D02*
X86412857Y-74148628D01*
X86412857Y-74148628D02*
X86031905Y-74148628D01*
X87460476Y-73958152D02*
X87460476Y-74624819D01*
X87222381Y-73577200D02*
X86984286Y-74291485D01*
X86984286Y-74291485D02*
X87603333Y-74291485D01*
X105833333Y-70454819D02*
X105500000Y-69978628D01*
X105261905Y-70454819D02*
X105261905Y-69454819D01*
X105261905Y-69454819D02*
X105642857Y-69454819D01*
X105642857Y-69454819D02*
X105738095Y-69502438D01*
X105738095Y-69502438D02*
X105785714Y-69550057D01*
X105785714Y-69550057D02*
X105833333Y-69645295D01*
X105833333Y-69645295D02*
X105833333Y-69788152D01*
X105833333Y-69788152D02*
X105785714Y-69883390D01*
X105785714Y-69883390D02*
X105738095Y-69931009D01*
X105738095Y-69931009D02*
X105642857Y-69978628D01*
X105642857Y-69978628D02*
X105261905Y-69978628D01*
X106166667Y-69454819D02*
X106785714Y-69454819D01*
X106785714Y-69454819D02*
X106452381Y-69835771D01*
X106452381Y-69835771D02*
X106595238Y-69835771D01*
X106595238Y-69835771D02*
X106690476Y-69883390D01*
X106690476Y-69883390D02*
X106738095Y-69931009D01*
X106738095Y-69931009D02*
X106785714Y-70026247D01*
X106785714Y-70026247D02*
X106785714Y-70264342D01*
X106785714Y-70264342D02*
X106738095Y-70359580D01*
X106738095Y-70359580D02*
X106690476Y-70407200D01*
X106690476Y-70407200D02*
X106595238Y-70454819D01*
X106595238Y-70454819D02*
X106309524Y-70454819D01*
X106309524Y-70454819D02*
X106214286Y-70407200D01*
X106214286Y-70407200D02*
X106166667Y-70359580D01*
X96953333Y-62214819D02*
X96620000Y-61738628D01*
X96381905Y-62214819D02*
X96381905Y-61214819D01*
X96381905Y-61214819D02*
X96762857Y-61214819D01*
X96762857Y-61214819D02*
X96858095Y-61262438D01*
X96858095Y-61262438D02*
X96905714Y-61310057D01*
X96905714Y-61310057D02*
X96953333Y-61405295D01*
X96953333Y-61405295D02*
X96953333Y-61548152D01*
X96953333Y-61548152D02*
X96905714Y-61643390D01*
X96905714Y-61643390D02*
X96858095Y-61691009D01*
X96858095Y-61691009D02*
X96762857Y-61738628D01*
X96762857Y-61738628D02*
X96381905Y-61738628D01*
X97334286Y-61310057D02*
X97381905Y-61262438D01*
X97381905Y-61262438D02*
X97477143Y-61214819D01*
X97477143Y-61214819D02*
X97715238Y-61214819D01*
X97715238Y-61214819D02*
X97810476Y-61262438D01*
X97810476Y-61262438D02*
X97858095Y-61310057D01*
X97858095Y-61310057D02*
X97905714Y-61405295D01*
X97905714Y-61405295D02*
X97905714Y-61500533D01*
X97905714Y-61500533D02*
X97858095Y-61643390D01*
X97858095Y-61643390D02*
X97286667Y-62214819D01*
X97286667Y-62214819D02*
X97905714Y-62214819D01*
X80493333Y-59334819D02*
X80160000Y-58858628D01*
X79921905Y-59334819D02*
X79921905Y-58334819D01*
X79921905Y-58334819D02*
X80302857Y-58334819D01*
X80302857Y-58334819D02*
X80398095Y-58382438D01*
X80398095Y-58382438D02*
X80445714Y-58430057D01*
X80445714Y-58430057D02*
X80493333Y-58525295D01*
X80493333Y-58525295D02*
X80493333Y-58668152D01*
X80493333Y-58668152D02*
X80445714Y-58763390D01*
X80445714Y-58763390D02*
X80398095Y-58811009D01*
X80398095Y-58811009D02*
X80302857Y-58858628D01*
X80302857Y-58858628D02*
X79921905Y-58858628D01*
X81445714Y-59334819D02*
X80874286Y-59334819D01*
X81160000Y-59334819D02*
X81160000Y-58334819D01*
X81160000Y-58334819D02*
X81064762Y-58477676D01*
X81064762Y-58477676D02*
X80969524Y-58572914D01*
X80969524Y-58572914D02*
X80874286Y-58620533D01*
X79277142Y-68289580D02*
X79229523Y-68337200D01*
X79229523Y-68337200D02*
X79086666Y-68384819D01*
X79086666Y-68384819D02*
X78991428Y-68384819D01*
X78991428Y-68384819D02*
X78848571Y-68337200D01*
X78848571Y-68337200D02*
X78753333Y-68241961D01*
X78753333Y-68241961D02*
X78705714Y-68146723D01*
X78705714Y-68146723D02*
X78658095Y-67956247D01*
X78658095Y-67956247D02*
X78658095Y-67813390D01*
X78658095Y-67813390D02*
X78705714Y-67622914D01*
X78705714Y-67622914D02*
X78753333Y-67527676D01*
X78753333Y-67527676D02*
X78848571Y-67432438D01*
X78848571Y-67432438D02*
X78991428Y-67384819D01*
X78991428Y-67384819D02*
X79086666Y-67384819D01*
X79086666Y-67384819D02*
X79229523Y-67432438D01*
X79229523Y-67432438D02*
X79277142Y-67480057D01*
X80229523Y-68384819D02*
X79658095Y-68384819D01*
X79943809Y-68384819D02*
X79943809Y-67384819D01*
X79943809Y-67384819D02*
X79848571Y-67527676D01*
X79848571Y-67527676D02*
X79753333Y-67622914D01*
X79753333Y-67622914D02*
X79658095Y-67670533D01*
X81134285Y-67384819D02*
X80658095Y-67384819D01*
X80658095Y-67384819D02*
X80610476Y-67861009D01*
X80610476Y-67861009D02*
X80658095Y-67813390D01*
X80658095Y-67813390D02*
X80753333Y-67765771D01*
X80753333Y-67765771D02*
X80991428Y-67765771D01*
X80991428Y-67765771D02*
X81086666Y-67813390D01*
X81086666Y-67813390D02*
X81134285Y-67861009D01*
X81134285Y-67861009D02*
X81181904Y-67956247D01*
X81181904Y-67956247D02*
X81181904Y-68194342D01*
X81181904Y-68194342D02*
X81134285Y-68289580D01*
X81134285Y-68289580D02*
X81086666Y-68337200D01*
X81086666Y-68337200D02*
X80991428Y-68384819D01*
X80991428Y-68384819D02*
X80753333Y-68384819D01*
X80753333Y-68384819D02*
X80658095Y-68337200D01*
X80658095Y-68337200D02*
X80610476Y-68289580D01*
X79277142Y-62589580D02*
X79229523Y-62637200D01*
X79229523Y-62637200D02*
X79086666Y-62684819D01*
X79086666Y-62684819D02*
X78991428Y-62684819D01*
X78991428Y-62684819D02*
X78848571Y-62637200D01*
X78848571Y-62637200D02*
X78753333Y-62541961D01*
X78753333Y-62541961D02*
X78705714Y-62446723D01*
X78705714Y-62446723D02*
X78658095Y-62256247D01*
X78658095Y-62256247D02*
X78658095Y-62113390D01*
X78658095Y-62113390D02*
X78705714Y-61922914D01*
X78705714Y-61922914D02*
X78753333Y-61827676D01*
X78753333Y-61827676D02*
X78848571Y-61732438D01*
X78848571Y-61732438D02*
X78991428Y-61684819D01*
X78991428Y-61684819D02*
X79086666Y-61684819D01*
X79086666Y-61684819D02*
X79229523Y-61732438D01*
X79229523Y-61732438D02*
X79277142Y-61780057D01*
X80229523Y-62684819D02*
X79658095Y-62684819D01*
X79943809Y-62684819D02*
X79943809Y-61684819D01*
X79943809Y-61684819D02*
X79848571Y-61827676D01*
X79848571Y-61827676D02*
X79753333Y-61922914D01*
X79753333Y-61922914D02*
X79658095Y-61970533D01*
X81086666Y-62018152D02*
X81086666Y-62684819D01*
X80848571Y-61637200D02*
X80610476Y-62351485D01*
X80610476Y-62351485D02*
X81229523Y-62351485D01*
X96857142Y-66859580D02*
X96809523Y-66907200D01*
X96809523Y-66907200D02*
X96666666Y-66954819D01*
X96666666Y-66954819D02*
X96571428Y-66954819D01*
X96571428Y-66954819D02*
X96428571Y-66907200D01*
X96428571Y-66907200D02*
X96333333Y-66811961D01*
X96333333Y-66811961D02*
X96285714Y-66716723D01*
X96285714Y-66716723D02*
X96238095Y-66526247D01*
X96238095Y-66526247D02*
X96238095Y-66383390D01*
X96238095Y-66383390D02*
X96285714Y-66192914D01*
X96285714Y-66192914D02*
X96333333Y-66097676D01*
X96333333Y-66097676D02*
X96428571Y-66002438D01*
X96428571Y-66002438D02*
X96571428Y-65954819D01*
X96571428Y-65954819D02*
X96666666Y-65954819D01*
X96666666Y-65954819D02*
X96809523Y-66002438D01*
X96809523Y-66002438D02*
X96857142Y-66050057D01*
X97809523Y-66954819D02*
X97238095Y-66954819D01*
X97523809Y-66954819D02*
X97523809Y-65954819D01*
X97523809Y-65954819D02*
X97428571Y-66097676D01*
X97428571Y-66097676D02*
X97333333Y-66192914D01*
X97333333Y-66192914D02*
X97238095Y-66240533D01*
X98761904Y-66954819D02*
X98190476Y-66954819D01*
X98476190Y-66954819D02*
X98476190Y-65954819D01*
X98476190Y-65954819D02*
X98380952Y-66097676D01*
X98380952Y-66097676D02*
X98285714Y-66192914D01*
X98285714Y-66192914D02*
X98190476Y-66240533D01*
X86833333Y-71699580D02*
X86785714Y-71747200D01*
X86785714Y-71747200D02*
X86642857Y-71794819D01*
X86642857Y-71794819D02*
X86547619Y-71794819D01*
X86547619Y-71794819D02*
X86404762Y-71747200D01*
X86404762Y-71747200D02*
X86309524Y-71651961D01*
X86309524Y-71651961D02*
X86261905Y-71556723D01*
X86261905Y-71556723D02*
X86214286Y-71366247D01*
X86214286Y-71366247D02*
X86214286Y-71223390D01*
X86214286Y-71223390D02*
X86261905Y-71032914D01*
X86261905Y-71032914D02*
X86309524Y-70937676D01*
X86309524Y-70937676D02*
X86404762Y-70842438D01*
X86404762Y-70842438D02*
X86547619Y-70794819D01*
X86547619Y-70794819D02*
X86642857Y-70794819D01*
X86642857Y-70794819D02*
X86785714Y-70842438D01*
X86785714Y-70842438D02*
X86833333Y-70890057D01*
X87309524Y-71794819D02*
X87500000Y-71794819D01*
X87500000Y-71794819D02*
X87595238Y-71747200D01*
X87595238Y-71747200D02*
X87642857Y-71699580D01*
X87642857Y-71699580D02*
X87738095Y-71556723D01*
X87738095Y-71556723D02*
X87785714Y-71366247D01*
X87785714Y-71366247D02*
X87785714Y-70985295D01*
X87785714Y-70985295D02*
X87738095Y-70890057D01*
X87738095Y-70890057D02*
X87690476Y-70842438D01*
X87690476Y-70842438D02*
X87595238Y-70794819D01*
X87595238Y-70794819D02*
X87404762Y-70794819D01*
X87404762Y-70794819D02*
X87309524Y-70842438D01*
X87309524Y-70842438D02*
X87261905Y-70890057D01*
X87261905Y-70890057D02*
X87214286Y-70985295D01*
X87214286Y-70985295D02*
X87214286Y-71223390D01*
X87214286Y-71223390D02*
X87261905Y-71318628D01*
X87261905Y-71318628D02*
X87309524Y-71366247D01*
X87309524Y-71366247D02*
X87404762Y-71413866D01*
X87404762Y-71413866D02*
X87595238Y-71413866D01*
X87595238Y-71413866D02*
X87690476Y-71366247D01*
X87690476Y-71366247D02*
X87738095Y-71318628D01*
X87738095Y-71318628D02*
X87785714Y-71223390D01*
X83583333Y-57359580D02*
X83535714Y-57407200D01*
X83535714Y-57407200D02*
X83392857Y-57454819D01*
X83392857Y-57454819D02*
X83297619Y-57454819D01*
X83297619Y-57454819D02*
X83154762Y-57407200D01*
X83154762Y-57407200D02*
X83059524Y-57311961D01*
X83059524Y-57311961D02*
X83011905Y-57216723D01*
X83011905Y-57216723D02*
X82964286Y-57026247D01*
X82964286Y-57026247D02*
X82964286Y-56883390D01*
X82964286Y-56883390D02*
X83011905Y-56692914D01*
X83011905Y-56692914D02*
X83059524Y-56597676D01*
X83059524Y-56597676D02*
X83154762Y-56502438D01*
X83154762Y-56502438D02*
X83297619Y-56454819D01*
X83297619Y-56454819D02*
X83392857Y-56454819D01*
X83392857Y-56454819D02*
X83535714Y-56502438D01*
X83535714Y-56502438D02*
X83583333Y-56550057D01*
X84488095Y-56454819D02*
X84011905Y-56454819D01*
X84011905Y-56454819D02*
X83964286Y-56931009D01*
X83964286Y-56931009D02*
X84011905Y-56883390D01*
X84011905Y-56883390D02*
X84107143Y-56835771D01*
X84107143Y-56835771D02*
X84345238Y-56835771D01*
X84345238Y-56835771D02*
X84440476Y-56883390D01*
X84440476Y-56883390D02*
X84488095Y-56931009D01*
X84488095Y-56931009D02*
X84535714Y-57026247D01*
X84535714Y-57026247D02*
X84535714Y-57264342D01*
X84535714Y-57264342D02*
X84488095Y-57359580D01*
X84488095Y-57359580D02*
X84440476Y-57407200D01*
X84440476Y-57407200D02*
X84345238Y-57454819D01*
X84345238Y-57454819D02*
X84107143Y-57454819D01*
X84107143Y-57454819D02*
X84011905Y-57407200D01*
X84011905Y-57407200D02*
X83964286Y-57359580D01*
X82433333Y-60719580D02*
X82385714Y-60767200D01*
X82385714Y-60767200D02*
X82242857Y-60814819D01*
X82242857Y-60814819D02*
X82147619Y-60814819D01*
X82147619Y-60814819D02*
X82004762Y-60767200D01*
X82004762Y-60767200D02*
X81909524Y-60671961D01*
X81909524Y-60671961D02*
X81861905Y-60576723D01*
X81861905Y-60576723D02*
X81814286Y-60386247D01*
X81814286Y-60386247D02*
X81814286Y-60243390D01*
X81814286Y-60243390D02*
X81861905Y-60052914D01*
X81861905Y-60052914D02*
X81909524Y-59957676D01*
X81909524Y-59957676D02*
X82004762Y-59862438D01*
X82004762Y-59862438D02*
X82147619Y-59814819D01*
X82147619Y-59814819D02*
X82242857Y-59814819D01*
X82242857Y-59814819D02*
X82385714Y-59862438D01*
X82385714Y-59862438D02*
X82433333Y-59910057D01*
X83290476Y-60148152D02*
X83290476Y-60814819D01*
X83052381Y-59767200D02*
X82814286Y-60481485D01*
X82814286Y-60481485D02*
X83433333Y-60481485D01*
X91363333Y-72999580D02*
X91315714Y-73047200D01*
X91315714Y-73047200D02*
X91172857Y-73094819D01*
X91172857Y-73094819D02*
X91077619Y-73094819D01*
X91077619Y-73094819D02*
X90934762Y-73047200D01*
X90934762Y-73047200D02*
X90839524Y-72951961D01*
X90839524Y-72951961D02*
X90791905Y-72856723D01*
X90791905Y-72856723D02*
X90744286Y-72666247D01*
X90744286Y-72666247D02*
X90744286Y-72523390D01*
X90744286Y-72523390D02*
X90791905Y-72332914D01*
X90791905Y-72332914D02*
X90839524Y-72237676D01*
X90839524Y-72237676D02*
X90934762Y-72142438D01*
X90934762Y-72142438D02*
X91077619Y-72094819D01*
X91077619Y-72094819D02*
X91172857Y-72094819D01*
X91172857Y-72094819D02*
X91315714Y-72142438D01*
X91315714Y-72142438D02*
X91363333Y-72190057D01*
X91696667Y-72094819D02*
X92315714Y-72094819D01*
X92315714Y-72094819D02*
X91982381Y-72475771D01*
X91982381Y-72475771D02*
X92125238Y-72475771D01*
X92125238Y-72475771D02*
X92220476Y-72523390D01*
X92220476Y-72523390D02*
X92268095Y-72571009D01*
X92268095Y-72571009D02*
X92315714Y-72666247D01*
X92315714Y-72666247D02*
X92315714Y-72904342D01*
X92315714Y-72904342D02*
X92268095Y-72999580D01*
X92268095Y-72999580D02*
X92220476Y-73047200D01*
X92220476Y-73047200D02*
X92125238Y-73094819D01*
X92125238Y-73094819D02*
X91839524Y-73094819D01*
X91839524Y-73094819D02*
X91744286Y-73047200D01*
X91744286Y-73047200D02*
X91696667Y-72999580D01*
X94763333Y-61549580D02*
X94715714Y-61597200D01*
X94715714Y-61597200D02*
X94572857Y-61644819D01*
X94572857Y-61644819D02*
X94477619Y-61644819D01*
X94477619Y-61644819D02*
X94334762Y-61597200D01*
X94334762Y-61597200D02*
X94239524Y-61501961D01*
X94239524Y-61501961D02*
X94191905Y-61406723D01*
X94191905Y-61406723D02*
X94144286Y-61216247D01*
X94144286Y-61216247D02*
X94144286Y-61073390D01*
X94144286Y-61073390D02*
X94191905Y-60882914D01*
X94191905Y-60882914D02*
X94239524Y-60787676D01*
X94239524Y-60787676D02*
X94334762Y-60692438D01*
X94334762Y-60692438D02*
X94477619Y-60644819D01*
X94477619Y-60644819D02*
X94572857Y-60644819D01*
X94572857Y-60644819D02*
X94715714Y-60692438D01*
X94715714Y-60692438D02*
X94763333Y-60740057D01*
X95144286Y-60740057D02*
X95191905Y-60692438D01*
X95191905Y-60692438D02*
X95287143Y-60644819D01*
X95287143Y-60644819D02*
X95525238Y-60644819D01*
X95525238Y-60644819D02*
X95620476Y-60692438D01*
X95620476Y-60692438D02*
X95668095Y-60740057D01*
X95668095Y-60740057D02*
X95715714Y-60835295D01*
X95715714Y-60835295D02*
X95715714Y-60930533D01*
X95715714Y-60930533D02*
X95668095Y-61073390D01*
X95668095Y-61073390D02*
X95096667Y-61644819D01*
X95096667Y-61644819D02*
X95715714Y-61644819D01*
D12*
%TO.C,U2*%
X101910000Y-72150000D02*
X101910000Y-75910000D01*
X95090000Y-72150000D02*
X95090000Y-75910000D01*
X101910000Y-75910000D02*
X100650000Y-75910000D01*
X95090000Y-75910000D02*
X96350000Y-75910000D01*
X102140000Y-71110000D02*
X101810000Y-70870000D01*
X102140000Y-70630000D01*
X102140000Y-71110000D01*
G36*
X102140000Y-71110000D02*
G01*
X101810000Y-70870000D01*
X102140000Y-70630000D01*
X102140000Y-71110000D01*
G37*
%TO.C,C10*%
X102765000Y-74711252D02*
X102765000Y-74188748D01*
X104235000Y-74711252D02*
X104235000Y-74188748D01*
%TO.C,D1*%
X106935000Y-75400000D02*
X106935000Y-73115000D01*
X105465000Y-73115000D02*
X105465000Y-75400000D01*
X106935000Y-73115000D02*
X105465000Y-73115000D01*
%TO.C,U1*%
X84500000Y-62002500D02*
X84160000Y-61532500D01*
X84840000Y-61532500D01*
X84500000Y-62002500D01*
G36*
X84500000Y-62002500D02*
G01*
X84160000Y-61532500D01*
X84840000Y-61532500D01*
X84500000Y-62002500D01*
G37*
X92360000Y-68772500D02*
X91910000Y-68772500D01*
X92360000Y-68322500D02*
X92360000Y-68772500D01*
X92360000Y-61552500D02*
X92360000Y-62002500D01*
X91910000Y-61552500D02*
X92360000Y-61552500D01*
X85590000Y-68772500D02*
X85140000Y-68772500D01*
X85140000Y-68772500D02*
X85140000Y-68322500D01*
X85140000Y-62002500D02*
X85140000Y-61552500D01*
X85140000Y-61552500D02*
X85590000Y-61552500D01*
%TO.C,C1*%
X86142164Y-58640000D02*
X86357836Y-58640000D01*
X86142164Y-59360000D02*
X86357836Y-59360000D01*
%TO.C,SW1*%
X75280000Y-60450000D02*
X76070000Y-60450000D01*
X77120000Y-58400000D02*
X77120000Y-58600000D01*
X77120000Y-55400000D02*
X77120000Y-57100000D01*
X74270000Y-54150000D02*
X74270000Y-59850000D01*
X76070000Y-53550000D02*
X75280000Y-53550000D01*
%TO.C,FB1*%
X83490000Y-71124721D02*
X83490000Y-71450279D01*
X84510000Y-71124721D02*
X84510000Y-71450279D01*
%TO.C,C8*%
X82127836Y-71640000D02*
X81912164Y-71640000D01*
X82127836Y-72360000D02*
X81912164Y-72360000D01*
%TO.C,C7*%
X82087836Y-70140000D02*
X81872164Y-70140000D01*
X82087836Y-70860000D02*
X81872164Y-70860000D01*
%TO.C,C6*%
X82950000Y-66287836D02*
X82950000Y-66072164D01*
X82230000Y-66287836D02*
X82230000Y-66072164D01*
%TO.C,Y1*%
X75150000Y-62960000D02*
X75150000Y-67080000D01*
X78570000Y-62960000D02*
X75150000Y-62960000D01*
%TO.C,R5*%
X90846359Y-74120000D02*
X91153641Y-74120000D01*
X90846359Y-74880000D02*
X91153641Y-74880000D01*
%TO.C,R4*%
X88803641Y-74360000D02*
X88496359Y-74360000D01*
X88803641Y-73600000D02*
X88496359Y-73600000D01*
%TO.C,R3*%
X105620000Y-71653641D02*
X105620000Y-71346359D01*
X106380000Y-71653641D02*
X106380000Y-71346359D01*
%TO.C,R2*%
X97500000Y-63106359D02*
X97500000Y-63413641D01*
X96740000Y-63106359D02*
X96740000Y-63413641D01*
%TO.C,R1*%
X80300000Y-57403641D02*
X80300000Y-57096359D01*
X81060000Y-57403641D02*
X81060000Y-57096359D01*
%TO.C,J4*%
X83310000Y-78380000D02*
X83310000Y-77000000D01*
X84690000Y-78380000D02*
X83310000Y-78380000D01*
X85960000Y-78380000D02*
X93690000Y-78380000D01*
X85960000Y-78380000D02*
X85960000Y-75620000D01*
X93690000Y-78380000D02*
X93690000Y-75620000D01*
X85960000Y-75620000D02*
X93690000Y-75620000D01*
%TO.C,J3*%
X93380000Y-48620000D02*
X93380000Y-50000000D01*
X92000000Y-48620000D02*
X93380000Y-48620000D01*
X90730000Y-48620000D02*
X83000000Y-48620000D01*
X90730000Y-48620000D02*
X90730000Y-51380000D01*
X83000000Y-48620000D02*
X83000000Y-51380000D01*
X90730000Y-51380000D02*
X83000000Y-51380000D01*
%TO.C,J2*%
X105880000Y-48620000D02*
X105880000Y-50000000D01*
X104500000Y-48620000D02*
X105880000Y-48620000D01*
X103230000Y-48620000D02*
X95500000Y-48620000D01*
X103230000Y-48620000D02*
X103230000Y-51380000D01*
X95500000Y-48620000D02*
X95500000Y-51380000D01*
X103230000Y-51380000D02*
X95500000Y-51380000D01*
D11*
%TO.C,J1*%
X108715000Y-68005000D02*
X110115000Y-68005000D01*
X112515000Y-68005000D02*
X112665000Y-68005000D01*
X112665000Y-68005000D02*
X112665000Y-67705000D01*
X112665000Y-67705000D02*
X113115000Y-67705000D01*
X106540000Y-65655000D02*
X106965000Y-65655000D01*
X106965000Y-65655000D02*
X106965000Y-66655000D01*
X106540000Y-64930000D02*
X106540000Y-65655000D01*
X106965000Y-62055000D02*
X106965000Y-61055000D01*
X112665000Y-60005000D02*
X112665000Y-59705000D01*
X113115000Y-60005000D02*
X112665000Y-60005000D01*
X110115000Y-59705000D02*
X108715000Y-59705000D01*
X112665000Y-59705000D02*
X112515000Y-59705000D01*
D12*
%TO.C,C15*%
X80870000Y-66002164D02*
X80870000Y-66217836D01*
X80150000Y-66002164D02*
X80150000Y-66217836D01*
%TO.C,C14*%
X80870000Y-64042164D02*
X80870000Y-64257836D01*
X80150000Y-64042164D02*
X80150000Y-64257836D01*
%TO.C,C11*%
X97738748Y-67765000D02*
X98261252Y-67765000D01*
X97738748Y-69235000D02*
X98261252Y-69235000D01*
%TO.C,C9*%
X86892164Y-72140000D02*
X87107836Y-72140000D01*
X86892164Y-72860000D02*
X87107836Y-72860000D01*
%TO.C,C5*%
X86109420Y-56490000D02*
X86390580Y-56490000D01*
X86109420Y-57510000D02*
X86390580Y-57510000D01*
%TO.C,C4*%
X82240000Y-61987836D02*
X82240000Y-61772164D01*
X82960000Y-61987836D02*
X82960000Y-61772164D01*
%TO.C,C3*%
X91637836Y-71840000D02*
X91422164Y-71840000D01*
X91637836Y-71120000D02*
X91422164Y-71120000D01*
%TO.C,C2*%
X95290000Y-62562164D02*
X95290000Y-62777836D01*
X94570000Y-62562164D02*
X94570000Y-62777836D01*
%TD*%
M02*
