M48
; DRILL file {KiCad 9.0.5} date 2026-08-17T03:36:48-0400
; FORMAT={-:-/ absolute / metric / decimal}
; #@! TF.CreationDate,2026-08-17T03:36:48-04:00
; #@! TF.GenerationSoftware,Kicad,Pcbnew,9.0.5
; #@! TF.FileFunction,MixedPlating,1,2
FMAT,2
METRIC
; #@! TA.AperFunction,Plated,PTH,ViaDrill
T1C0.300
; #@! TA.AperFunction,Plated,PTH,ComponentDrill
T2C0.550
; #@! TA.AperFunction,Plated,PTH,ComponentDrill
T3C0.850
; #@! TA.AperFunction,Plated,PTH,ComponentDrill
T4C1.000
; #@! TA.AperFunction,NonPlated,NPTH,ComponentDrill
T5C0.800
; #@! TA.AperFunction,NonPlated,NPTH,ComponentDrill
T6C0.900
; #@! TA.AperFunction,NonPlated,NPTH,ComponentDrill
T7C2.200
%
G90
G05
T1
X76.93Y-67.55
X77.7Y-62.51
X78.0Y-53.74
X79.605Y-64.975
X81.49Y-69.44
X81.52Y-73.07
X81.53Y-66.56
X83.52Y-61.4
X86.05Y-66.28
X86.5Y-62.36
X86.8Y-73.39
X87.38Y-75.03
X88.84Y-74.93
X90.435Y-73.515
X91.01Y-67.83
X92.203Y-73.501
X95.849Y-63.201
X100.31Y-67.86
X100.31Y-69.05
X100.368Y-72.4
X101.22Y-72.4
X104.88Y-73.6
X107.02Y-71.04
X108.92Y-62.54
T4
X84.38Y-50.0
X84.69Y-77.0
X86.92Y-50.0
X87.23Y-77.0
X89.46Y-50.0
X89.77Y-77.0
X92.0Y-50.0
X92.31Y-77.0
X96.88Y-50.0
X99.42Y-50.0
X101.96Y-50.0
X104.5Y-50.0
T5
X108.565Y-61.355
X108.565Y-66.355
T6
X75.67Y-55.5
X75.67Y-58.5
T7
X76.5Y-49.5
X76.5Y-76.0
X110.5Y-49.5
X110.5Y-76.0
T2
G00X110.99Y-59.98
M15
G01X111.64Y-59.98
M16
G05
G00X110.99Y-67.73
M15
G01X111.64Y-67.73
M16
G05
T3
G00X107.24Y-60.13
M15
G01X107.79Y-60.13
M16
G05
G00X107.24Y-67.58
M15
G01X107.79Y-67.58
M16
G05
M30
