%TF.GenerationSoftware,KiCad,Pcbnew,9.0.5*%
%TF.CreationDate,2026-08-17T03:38:33-04:00*%
%TF.ProjectId,ytTut,79745475-742e-46b6-9963-61645f706362,rev?*%
%TF.SameCoordinates,Original*%
%TF.FileFunction,Soldermask,Top*%
%TF.FilePolarity,Negative*%
%FSLAX46Y46*%
G04 Gerber Fmt 4.6, Leading zero omitted, Abs format (unit mm)*
G04 Created by KiCad (PCBNEW 9.0.5) date 2026-08-17 03:38:33*
%MOMM*%
%LPD*%
G01*
G04 APERTURE LIST*
G04 Aperture macros list*
%AMRoundRect*
0 Rectangle with rounded corners*
0 $1 Rounding radius*
0 $2 $3 $4 $5 $6 $7 $8 $9 X,Y pos of 4 corners*
0 Add a 4 corners polygon primitive as box body*
4,1,4,$2,$3,$4,$5,$6,$7,$8,$9,$2,$3,0*
0 Add four circle primitives for the rounded corners*
1,1,$1+$1,$2,$3*
1,1,$1+$1,$4,$5*
1,1,$1+$1,$6,$7*
1,1,$1+$1,$8,$9*
0 Add four rect primitives between the rounded corners*
20,1,$1+$1,$2,$3,$4,$5,0*
20,1,$1+$1,$4,$5,$6,$7,0*
20,1,$1+$1,$6,$7,$8,$9,0*
20,1,$1+$1,$8,$9,$2,$3,0*%
G04 Aperture macros list end*
%ADD10RoundRect,0.375000X-0.375000X0.625000X-0.375000X-0.625000X0.375000X-0.625000X0.375000X0.625000X0*%
%ADD11RoundRect,0.500000X-1.400000X0.500000X-1.400000X-0.500000X1.400000X-0.500000X1.400000X0.500000X0*%
%ADD12RoundRect,0.250000X0.475000X-0.250000X0.475000X0.250000X-0.475000X0.250000X-0.475000X-0.250000X0*%
%ADD13RoundRect,0.218750X-0.256250X0.218750X-0.256250X-0.218750X0.256250X-0.218750X0.256250X0.218750X0*%
%ADD14RoundRect,0.075000X-0.075000X-0.662500X0.075000X-0.662500X0.075000X0.662500X-0.075000X0.662500X0*%
%ADD15RoundRect,0.075000X-0.662500X-0.075000X0.662500X-0.075000X0.662500X0.075000X-0.662500X0.075000X0*%
%ADD16RoundRect,0.140000X-0.140000X-0.170000X0.140000X-0.170000X0.140000X0.170000X-0.140000X0.170000X0*%
%ADD17R,1.500000X0.700000*%
%ADD18R,0.800000X1.000000*%
%ADD19C,0.900000*%
%ADD20C,2.200000*%
%ADD21RoundRect,0.140000X0.140000X0.170000X-0.140000X0.170000X-0.140000X-0.170000X0.140000X-0.170000X0*%
%ADD22RoundRect,0.140000X0.170000X-0.140000X0.170000X0.140000X-0.170000X0.140000X-0.170000X-0.140000X0*%
%ADD23RoundRect,0.250000X-0.350000X0.450000X-0.350000X-0.450000X0.350000X-0.450000X0.350000X0.450000X0*%
%ADD24RoundRect,0.135000X-0.135000X-0.185000X0.135000X-0.185000X0.135000X0.185000X-0.135000X0.185000X0*%
%ADD25RoundRect,0.135000X0.135000X0.185000X-0.135000X0.185000X-0.135000X-0.185000X0.135000X-0.185000X0*%
%ADD26RoundRect,0.135000X0.185000X-0.135000X0.185000X0.135000X-0.185000X0.135000X-0.185000X-0.135000X0*%
%ADD27RoundRect,0.135000X-0.185000X0.135000X-0.185000X-0.135000X0.185000X-0.135000X0.185000X0.135000X0*%
%ADD28R,1.700000X1.700000*%
%ADD29C,1.700000*%
%ADD30O,0.800000X0.800000*%
%ADD31R,1.300000X0.450000*%
%ADD32O,1.800000X1.150000*%
%ADD33O,2.000000X1.450000*%
%ADD34RoundRect,0.140000X-0.170000X0.140000X-0.170000X-0.140000X0.170000X-0.140000X0.170000X0.140000X0*%
%ADD35RoundRect,0.250000X-0.250000X-0.475000X0.250000X-0.475000X0.250000X0.475000X-0.250000X0.475000X0*%
%ADD36RoundRect,0.225000X-0.225000X-0.250000X0.225000X-0.250000X0.225000X0.250000X-0.225000X0.250000X0*%
G04 APERTURE END LIST*
D10*
%TO.C,U2*%
X100800000Y-70850000D03*
X98500000Y-70850000D03*
D11*
X98500000Y-77150000D03*
D10*
X96200000Y-70850000D03*
%TD*%
D12*
%TO.C,C10*%
X103500000Y-75400000D03*
X103500000Y-73500000D03*
%TD*%
D13*
%TO.C,D1*%
X106200000Y-75387500D03*
X106200000Y-73812500D03*
%TD*%
D14*
%TO.C,U1*%
X86000000Y-61000000D03*
X86500000Y-61000000D03*
X87000000Y-61000000D03*
X87500000Y-61000000D03*
X88000000Y-61000000D03*
X88500000Y-61000000D03*
X89000000Y-61000000D03*
X89500000Y-61000000D03*
X90000000Y-61000000D03*
X90500000Y-61000000D03*
X91000000Y-61000000D03*
X91500000Y-61000000D03*
D15*
X92912500Y-62412500D03*
X92912500Y-62912500D03*
X92912500Y-63412500D03*
X92912500Y-63912500D03*
X92912500Y-64412500D03*
X92912500Y-64912500D03*
X92912500Y-65412500D03*
X92912500Y-65912500D03*
X92912500Y-66412500D03*
X92912500Y-66912500D03*
X92912500Y-67412500D03*
X92912500Y-67912500D03*
D14*
X91500000Y-69325000D03*
X91000000Y-69325000D03*
X90500000Y-69325000D03*
X90000000Y-69325000D03*
X89500000Y-69325000D03*
X89000000Y-69325000D03*
X88500000Y-69325000D03*
X88000000Y-69325000D03*
X87500000Y-69325000D03*
X87000000Y-69325000D03*
X86500000Y-69325000D03*
X86000000Y-69325000D03*
D15*
X84587500Y-67912500D03*
X84587500Y-67412500D03*
X84587500Y-66912500D03*
X84587500Y-66412500D03*
X84587500Y-65912500D03*
X84587500Y-65412500D03*
X84587500Y-64912500D03*
X84587500Y-64412500D03*
X84587500Y-63912500D03*
X84587500Y-63412500D03*
X84587500Y-62912500D03*
X84587500Y-62412500D03*
%TD*%
D16*
%TO.C,C1*%
X85770000Y-59000000D03*
X86730000Y-59000000D03*
%TD*%
D17*
%TO.C,SW1*%
X77430000Y-59250000D03*
X77430000Y-57750000D03*
X77430000Y-54750000D03*
D18*
X74570000Y-60650000D03*
X76780000Y-60650000D03*
D19*
X75670000Y-58500000D03*
X75670000Y-55500000D03*
D18*
X74570000Y-53350000D03*
X76780000Y-53350000D03*
%TD*%
D20*
%TO.C,H2*%
X110500000Y-49500000D03*
%TD*%
%TO.C,H1*%
X76500000Y-49500000D03*
%TD*%
%TO.C,H4*%
X110500000Y-76000000D03*
%TD*%
%TO.C,H3*%
X76500000Y-76000000D03*
%TD*%
D13*
%TO.C,FB1*%
X84000000Y-72075000D03*
X84000000Y-70500000D03*
%TD*%
D21*
%TO.C,C8*%
X81540000Y-72000000D03*
X82500000Y-72000000D03*
%TD*%
%TO.C,C7*%
X81500000Y-70500000D03*
X82460000Y-70500000D03*
%TD*%
D22*
%TO.C,C6*%
X82590000Y-65700000D03*
X82590000Y-66660000D03*
%TD*%
D23*
%TO.C,Y1*%
X77710000Y-63920000D03*
X77710000Y-66120000D03*
X76010000Y-66120000D03*
X76010000Y-63920000D03*
%TD*%
D24*
%TO.C,R5*%
X90490000Y-74500000D03*
X91510000Y-74500000D03*
%TD*%
D25*
%TO.C,R4*%
X89160000Y-73980000D03*
X88140000Y-73980000D03*
%TD*%
D26*
%TO.C,R3*%
X106000000Y-72010000D03*
X106000000Y-70990000D03*
%TD*%
D27*
%TO.C,R2*%
X97120000Y-62750000D03*
X97120000Y-63770000D03*
%TD*%
D26*
%TO.C,R1*%
X80680000Y-57760000D03*
X80680000Y-56740000D03*
%TD*%
D28*
%TO.C,J4*%
X84690000Y-77000000D03*
D29*
X87230000Y-77000000D03*
X89770000Y-77000000D03*
X92310000Y-77000000D03*
%TD*%
D28*
%TO.C,J3*%
X92000000Y-50000000D03*
D29*
X89460000Y-50000000D03*
X86920000Y-50000000D03*
X84380000Y-50000000D03*
%TD*%
D28*
%TO.C,J2*%
X104500000Y-50000000D03*
D29*
X101960000Y-50000000D03*
X99420000Y-50000000D03*
X96880000Y-50000000D03*
%TD*%
D30*
%TO.C,J1*%
X108565000Y-66355000D03*
X108565000Y-61355000D03*
D31*
X107465000Y-65155000D03*
X107465000Y-64505000D03*
X107465000Y-63855000D03*
X107465000Y-63205000D03*
X107465000Y-62555000D03*
D32*
X111315000Y-67730000D03*
D33*
X107515000Y-67580000D03*
X107515000Y-60130000D03*
D32*
X111315000Y-59980000D03*
%TD*%
D34*
%TO.C,C15*%
X80510000Y-65630000D03*
X80510000Y-66590000D03*
%TD*%
%TO.C,C14*%
X80510000Y-63670000D03*
X80510000Y-64630000D03*
%TD*%
D35*
%TO.C,C11*%
X97050000Y-68500000D03*
X98950000Y-68500000D03*
%TD*%
D16*
%TO.C,C9*%
X86520000Y-72500000D03*
X87480000Y-72500000D03*
%TD*%
D36*
%TO.C,C5*%
X85475000Y-57000000D03*
X87025000Y-57000000D03*
%TD*%
D22*
%TO.C,C4*%
X82600000Y-62360000D03*
X82600000Y-61400000D03*
%TD*%
D21*
%TO.C,C3*%
X92010000Y-71480000D03*
X91050000Y-71480000D03*
%TD*%
D34*
%TO.C,C2*%
X94930000Y-62190000D03*
X94930000Y-63150000D03*
%TD*%
M02*
