%TF.GenerationSoftware,KiCad,Pcbnew,9.0.5*%
%TF.CreationDate,2026-08-17T03:38:29-04:00*%
%TF.ProjectId,ytTut,79745475-742e-46b6-9963-61645f706362,rev?*%
%TF.SameCoordinates,Original*%
%TF.FileFunction,Copper,L2,Bot*%
%TF.FilePolarity,Positive*%
%FSLAX46Y46*%
G04 Gerber Fmt 4.6, Leading zero omitted, Abs format (unit mm)*
G04 Created by KiCad (PCBNEW 9.0.5) date 2026-08-17 03:38:29*
%MOMM*%
%LPD*%
G01*
G04 APERTURE LIST*
%TA.AperFunction,ComponentPad*%
%ADD10R,1.700000X1.700000*%
%TD*%
%TA.AperFunction,ComponentPad*%
%ADD11C,1.700000*%
%TD*%
%TA.AperFunction,HeatsinkPad*%
%ADD12O,1.800000X1.150000*%
%TD*%
%TA.AperFunction,HeatsinkPad*%
%ADD13O,2.000000X1.450000*%
%TD*%
%TA.AperFunction,ViaPad*%
%ADD14C,0.700000*%
%TD*%
%TA.AperFunction,Conductor*%
%ADD15C,0.500000*%
%TD*%
G04 APERTURE END LIST*
D10*
%TO.P,J4,1,Pin_1*%
%TO.N,+3.3V*%
X84690000Y-77000000D03*
D11*
%TO.P,J4,2,Pin_2*%
%TO.N,/I2C2_SCL*%
X87230000Y-77000000D03*
%TO.P,J4,3,Pin_3*%
%TO.N,/I2C2_SDA*%
X89770000Y-77000000D03*
%TO.P,J4,4,Pin_4*%
%TO.N,GND*%
X92310000Y-77000000D03*
%TD*%
D10*
%TO.P,J3,1,Pin_1*%
%TO.N,+3.3V*%
X92000000Y-50000000D03*
D11*
%TO.P,J3,2,Pin_2*%
%TO.N,/USART1_TX*%
X89460000Y-50000000D03*
%TO.P,J3,3,Pin_3*%
%TO.N,/USART1_RX*%
X86920000Y-50000000D03*
%TO.P,J3,4,Pin_4*%
%TO.N,GND*%
X84380000Y-50000000D03*
%TD*%
D10*
%TO.P,J2,1,Pin_1*%
%TO.N,+3.3V*%
X104500000Y-50000000D03*
D11*
%TO.P,J2,2,Pin_2*%
%TO.N,/SWDIO*%
X101960000Y-50000000D03*
%TO.P,J2,3,Pin_3*%
%TO.N,/SWCLK*%
X99420000Y-50000000D03*
%TO.P,J2,4,Pin_4*%
%TO.N,GND*%
X96880000Y-50000000D03*
%TD*%
D12*
%TO.P,J1,6,Shield*%
%TO.N,unconnected-(J1-Shield-Pad6)_2*%
X111315000Y-67730000D03*
D13*
%TO.N,unconnected-(J1-Shield-Pad6)*%
X107515000Y-67580000D03*
%TO.N,unconnected-(J1-Shield-Pad6)_3*%
X107515000Y-60130000D03*
D12*
%TO.N,unconnected-(J1-Shield-Pad6)_1*%
X111315000Y-59980000D03*
%TD*%
D14*
%TO.N,GND*%
X76930000Y-67550000D03*
X77700000Y-62510000D03*
%TO.N,+3.3V*%
X87380000Y-75030000D03*
X88840000Y-74930000D03*
%TO.N,GND*%
X95849314Y-63200686D03*
%TO.N,+3.3V*%
X90435025Y-73514975D03*
X92202965Y-73501005D03*
%TO.N,GND*%
X81520000Y-73070000D03*
X79604975Y-64974975D03*
X86500000Y-62360000D03*
X108920000Y-62540000D03*
X78000000Y-53740000D03*
X100368075Y-72399586D03*
X101220000Y-72400000D03*
X104880000Y-73600000D03*
X100310000Y-69050000D03*
X100310000Y-67860000D03*
X107020000Y-71040000D03*
X86050000Y-66280000D03*
X81530000Y-66560000D03*
X81490000Y-69440000D03*
X91010000Y-67830000D03*
X86800000Y-73390000D03*
X83520000Y-61400000D03*
%TD*%
D15*
%TO.N,+3.3V*%
X88840000Y-74930000D02*
X87480000Y-74930000D01*
X87480000Y-74930000D02*
X87380000Y-75030000D01*
X90448995Y-73501005D02*
X90435025Y-73514975D01*
X92202965Y-73501005D02*
X90448995Y-73501005D01*
%TO.N,GND*%
X101219586Y-72399586D02*
X101220000Y-72400000D01*
%TD*%
%TA.AperFunction,Conductor*%
%TO.N,GND*%
G36*
X110503243Y-46500669D02*
G01*
X110780182Y-46515184D01*
X110787575Y-46515794D01*
X110849875Y-46522813D01*
X110855353Y-46523555D01*
X111097128Y-46561848D01*
X111105289Y-46563423D01*
X111160830Y-46576100D01*
X111165181Y-46577179D01*
X111408157Y-46642284D01*
X111416999Y-46645013D01*
X111459629Y-46659930D01*
X111463079Y-46661195D01*
X111709378Y-46755739D01*
X111718711Y-46759770D01*
X111739307Y-46769689D01*
X111741754Y-46770900D01*
X111993968Y-46899411D01*
X112005203Y-46905898D01*
X112257608Y-47069812D01*
X112268109Y-47077441D01*
X112502010Y-47266850D01*
X112511655Y-47275535D01*
X112724464Y-47488344D01*
X112733149Y-47497989D01*
X112922558Y-47731890D01*
X112930187Y-47742391D01*
X113094101Y-47994796D01*
X113100591Y-48006036D01*
X113229075Y-48258199D01*
X113230309Y-48260691D01*
X113240223Y-48281277D01*
X113244268Y-48290643D01*
X113338791Y-48536887D01*
X113340068Y-48540369D01*
X113354985Y-48582999D01*
X113357719Y-48591860D01*
X113422806Y-48834766D01*
X113423923Y-48839269D01*
X113436569Y-48894679D01*
X113438150Y-48902872D01*
X113476440Y-49144627D01*
X113477187Y-49150142D01*
X113484204Y-49212424D01*
X113484814Y-49219816D01*
X113499330Y-49496755D01*
X113499500Y-49503246D01*
X113499500Y-75996753D01*
X113499330Y-76003244D01*
X113484814Y-76280182D01*
X113484204Y-76287574D01*
X113477187Y-76349856D01*
X113476440Y-76355371D01*
X113438150Y-76597126D01*
X113436569Y-76605319D01*
X113423923Y-76660729D01*
X113422806Y-76665232D01*
X113357719Y-76908138D01*
X113354985Y-76916999D01*
X113340068Y-76959629D01*
X113338791Y-76963111D01*
X113244268Y-77209355D01*
X113240223Y-77218721D01*
X113230309Y-77239307D01*
X113229075Y-77241799D01*
X113100591Y-77493964D01*
X113094105Y-77505197D01*
X113030594Y-77602997D01*
X112930187Y-77757609D01*
X112922558Y-77768109D01*
X112733149Y-78002010D01*
X112724464Y-78011655D01*
X112511655Y-78224464D01*
X112502010Y-78233149D01*
X112268109Y-78422558D01*
X112257609Y-78430187D01*
X112005197Y-78594105D01*
X111993964Y-78600591D01*
X111741799Y-78729075D01*
X111739307Y-78730309D01*
X111718721Y-78740223D01*
X111709355Y-78744268D01*
X111463111Y-78838791D01*
X111459629Y-78840068D01*
X111416999Y-78854985D01*
X111408138Y-78857719D01*
X111165232Y-78922806D01*
X111160729Y-78923923D01*
X111105319Y-78936569D01*
X111097126Y-78938150D01*
X110855371Y-78976440D01*
X110849856Y-78977187D01*
X110787574Y-78984204D01*
X110780182Y-78984814D01*
X110503244Y-78999330D01*
X110496753Y-78999500D01*
X76503246Y-78999500D01*
X76496757Y-78999330D01*
X76486676Y-78998801D01*
X76219816Y-78984814D01*
X76212424Y-78984204D01*
X76150142Y-78977187D01*
X76144627Y-78976440D01*
X75902872Y-78938150D01*
X75894679Y-78936569D01*
X75866044Y-78930033D01*
X75839245Y-78923917D01*
X75834766Y-78922806D01*
X75591860Y-78857719D01*
X75582999Y-78854985D01*
X75540369Y-78840068D01*
X75536887Y-78838791D01*
X75290643Y-78744268D01*
X75281277Y-78740223D01*
X75260691Y-78730309D01*
X75258199Y-78729075D01*
X75006036Y-78600591D01*
X74994796Y-78594101D01*
X74742391Y-78430187D01*
X74731890Y-78422558D01*
X74497989Y-78233149D01*
X74488344Y-78224464D01*
X74275535Y-78011655D01*
X74266850Y-78002010D01*
X74077441Y-77768109D01*
X74069812Y-77757608D01*
X73969406Y-77602997D01*
X73905896Y-77505199D01*
X73899408Y-77493963D01*
X73770900Y-77241754D01*
X73769689Y-77239307D01*
X73759775Y-77218721D01*
X73755739Y-77209378D01*
X73661195Y-76963079D01*
X73659930Y-76959629D01*
X73645013Y-76916999D01*
X73642284Y-76908157D01*
X73577179Y-76665181D01*
X73576100Y-76660830D01*
X73563423Y-76605289D01*
X73561848Y-76597126D01*
X73555708Y-76558360D01*
X73535135Y-76428466D01*
X73533609Y-76409391D01*
X73532342Y-75893713D01*
X75149500Y-75893713D01*
X75149500Y-76106286D01*
X75182324Y-76313533D01*
X75182754Y-76316243D01*
X75232721Y-76470026D01*
X75248444Y-76518414D01*
X75344951Y-76707820D01*
X75469890Y-76879786D01*
X75620213Y-77030109D01*
X75792179Y-77155048D01*
X75792181Y-77155049D01*
X75792184Y-77155051D01*
X75981588Y-77251557D01*
X76183757Y-77317246D01*
X76393713Y-77350500D01*
X76393714Y-77350500D01*
X76606286Y-77350500D01*
X76606287Y-77350500D01*
X76816243Y-77317246D01*
X77018412Y-77251557D01*
X77207816Y-77155051D01*
X77231658Y-77137729D01*
X77379786Y-77030109D01*
X77379788Y-77030106D01*
X77379792Y-77030104D01*
X77530104Y-76879792D01*
X77530106Y-76879788D01*
X77530109Y-76879786D01*
X77655048Y-76707820D01*
X77655047Y-76707820D01*
X77655051Y-76707816D01*
X77751557Y-76518412D01*
X77817246Y-76316243D01*
X77850500Y-76106287D01*
X77850500Y-76105131D01*
X83539500Y-76105131D01*
X83539500Y-77894856D01*
X83539502Y-77894882D01*
X83542413Y-77919987D01*
X83542415Y-77919991D01*
X83587793Y-78022764D01*
X83587794Y-78022765D01*
X83667235Y-78102206D01*
X83770009Y-78147585D01*
X83795135Y-78150500D01*
X85584864Y-78150499D01*
X85584879Y-78150497D01*
X85584882Y-78150497D01*
X85609987Y-78147586D01*
X85609988Y-78147585D01*
X85609991Y-78147585D01*
X85712765Y-78102206D01*
X85792206Y-78022765D01*
X85837585Y-77919991D01*
X85840500Y-77894865D01*
X85840499Y-77157125D01*
X85860183Y-77090089D01*
X85912987Y-77044334D01*
X85982146Y-77034390D01*
X86045702Y-77063415D01*
X86083476Y-77122193D01*
X86086972Y-77137729D01*
X86107829Y-77269410D01*
X86163787Y-77441636D01*
X86163788Y-77441639D01*
X86246006Y-77602997D01*
X86352441Y-77749494D01*
X86352445Y-77749499D01*
X86480500Y-77877554D01*
X86480505Y-77877558D01*
X86608287Y-77970396D01*
X86627006Y-77983996D01*
X86703094Y-78022765D01*
X86788360Y-78066211D01*
X86788363Y-78066212D01*
X86874476Y-78094191D01*
X86960591Y-78122171D01*
X87043429Y-78135291D01*
X87139449Y-78150500D01*
X87139454Y-78150500D01*
X87320551Y-78150500D01*
X87407259Y-78136765D01*
X87499409Y-78122171D01*
X87671639Y-78066211D01*
X87832994Y-77983996D01*
X87979501Y-77877553D01*
X88107553Y-77749501D01*
X88213996Y-77602994D01*
X88296211Y-77441639D01*
X88352171Y-77269409D01*
X88366422Y-77179425D01*
X88377527Y-77109321D01*
X88407456Y-77046186D01*
X88466768Y-77009255D01*
X88536630Y-77010253D01*
X88594863Y-77048863D01*
X88622473Y-77109321D01*
X88647829Y-77269410D01*
X88703787Y-77441636D01*
X88703788Y-77441639D01*
X88786006Y-77602997D01*
X88892441Y-77749494D01*
X88892445Y-77749499D01*
X89020500Y-77877554D01*
X89020505Y-77877558D01*
X89148287Y-77970396D01*
X89167006Y-77983996D01*
X89243094Y-78022765D01*
X89328360Y-78066211D01*
X89328363Y-78066212D01*
X89414476Y-78094191D01*
X89500591Y-78122171D01*
X89583429Y-78135291D01*
X89679449Y-78150500D01*
X89679454Y-78150500D01*
X89860551Y-78150500D01*
X89947259Y-78136765D01*
X90039409Y-78122171D01*
X90211639Y-78066211D01*
X90372994Y-77983996D01*
X90519501Y-77877553D01*
X90647553Y-77749501D01*
X90753996Y-77602994D01*
X90836211Y-77441639D01*
X90892171Y-77269409D01*
X90906765Y-77177259D01*
X90920500Y-77090551D01*
X90920500Y-76909448D01*
X90904019Y-76805397D01*
X90892171Y-76730591D01*
X90836211Y-76558361D01*
X90836211Y-76558360D01*
X90807740Y-76502484D01*
X90753996Y-76397006D01*
X90693350Y-76313533D01*
X90647558Y-76250505D01*
X90647554Y-76250500D01*
X90519499Y-76122445D01*
X90519494Y-76122441D01*
X90372995Y-76016004D01*
X90340263Y-75999326D01*
X90340262Y-75999326D01*
X90211639Y-75933788D01*
X90211636Y-75933787D01*
X90088297Y-75893713D01*
X109149500Y-75893713D01*
X109149500Y-76106286D01*
X109182324Y-76313533D01*
X109182754Y-76316243D01*
X109232721Y-76470026D01*
X109248444Y-76518414D01*
X109344951Y-76707820D01*
X109469890Y-76879786D01*
X109620213Y-77030109D01*
X109792179Y-77155048D01*
X109792181Y-77155049D01*
X109792184Y-77155051D01*
X109981588Y-77251557D01*
X110183757Y-77317246D01*
X110393713Y-77350500D01*
X110393714Y-77350500D01*
X110606286Y-77350500D01*
X110606287Y-77350500D01*
X110816243Y-77317246D01*
X111018412Y-77251557D01*
X111207816Y-77155051D01*
X111231658Y-77137729D01*
X111379786Y-77030109D01*
X111379788Y-77030106D01*
X111379792Y-77030104D01*
X111530104Y-76879792D01*
X111530106Y-76879788D01*
X111530109Y-76879786D01*
X111655048Y-76707820D01*
X111655047Y-76707820D01*
X111655051Y-76707816D01*
X111751557Y-76518412D01*
X111817246Y-76316243D01*
X111850500Y-76106287D01*
X111850500Y-75893713D01*
X111817246Y-75683757D01*
X111751557Y-75481588D01*
X111655051Y-75292184D01*
X111655049Y-75292181D01*
X111655048Y-75292179D01*
X111530109Y-75120213D01*
X111379786Y-74969890D01*
X111207820Y-74844951D01*
X111018414Y-74748444D01*
X111018413Y-74748443D01*
X111018412Y-74748443D01*
X110816243Y-74682754D01*
X110816241Y-74682753D01*
X110816240Y-74682753D01*
X110654957Y-74657208D01*
X110606287Y-74649500D01*
X110393713Y-74649500D01*
X110345042Y-74657208D01*
X110183760Y-74682753D01*
X110183757Y-74682754D01*
X110006770Y-74740261D01*
X109981585Y-74748444D01*
X109792179Y-74844951D01*
X109620213Y-74969890D01*
X109469890Y-75120213D01*
X109344951Y-75292179D01*
X109248444Y-75481585D01*
X109182753Y-75683760D01*
X109149500Y-75893713D01*
X90088297Y-75893713D01*
X90039410Y-75877829D01*
X89860551Y-75849500D01*
X89860546Y-75849500D01*
X89679454Y-75849500D01*
X89679449Y-75849500D01*
X89500589Y-75877829D01*
X89328363Y-75933787D01*
X89328360Y-75933788D01*
X89167002Y-76016006D01*
X89020505Y-76122441D01*
X89020500Y-76122445D01*
X88892445Y-76250500D01*
X88892441Y-76250505D01*
X88786006Y-76397002D01*
X88703788Y-76558360D01*
X88703787Y-76558363D01*
X88647829Y-76730589D01*
X88622473Y-76890678D01*
X88592544Y-76953813D01*
X88533232Y-76990744D01*
X88463369Y-76989746D01*
X88405137Y-76951136D01*
X88377527Y-76890678D01*
X88363740Y-76803639D01*
X88352171Y-76730591D01*
X88296211Y-76558361D01*
X88296211Y-76558360D01*
X88267740Y-76502484D01*
X88213996Y-76397006D01*
X88153350Y-76313533D01*
X88107558Y-76250505D01*
X88107554Y-76250500D01*
X87979499Y-76122445D01*
X87979494Y-76122441D01*
X87832997Y-76016006D01*
X87832996Y-76016005D01*
X87832994Y-76016004D01*
X87756906Y-75977235D01*
X87671639Y-75933788D01*
X87671633Y-75933786D01*
X87553628Y-75895445D01*
X87495952Y-75856008D01*
X87468753Y-75791650D01*
X87480667Y-75722803D01*
X87527911Y-75671327D01*
X87563943Y-75657373D01*
X87563912Y-75657270D01*
X87565291Y-75656851D01*
X87567759Y-75655896D01*
X87569739Y-75655502D01*
X87569739Y-75655501D01*
X87569744Y-75655501D01*
X87688127Y-75606465D01*
X87794669Y-75535276D01*
X87794672Y-75535273D01*
X87813127Y-75516819D01*
X87874450Y-75483334D01*
X87900808Y-75480500D01*
X88455399Y-75480500D01*
X88522438Y-75500185D01*
X88524252Y-75501373D01*
X88531873Y-75506465D01*
X88650256Y-75555501D01*
X88650260Y-75555501D01*
X88650261Y-75555502D01*
X88775928Y-75580500D01*
X88775931Y-75580500D01*
X88904071Y-75580500D01*
X88988615Y-75563682D01*
X89029744Y-75555501D01*
X89148127Y-75506465D01*
X89254669Y-75435276D01*
X89345276Y-75344669D01*
X89416465Y-75238127D01*
X89465501Y-75119744D01*
X89490500Y-74994069D01*
X89490500Y-74865931D01*
X89490500Y-74865928D01*
X89465502Y-74740261D01*
X89465501Y-74740260D01*
X89465501Y-74740256D01*
X89416465Y-74621873D01*
X89416464Y-74621872D01*
X89416461Y-74621866D01*
X89345276Y-74515331D01*
X89345273Y-74515327D01*
X89254672Y-74424726D01*
X89254668Y-74424723D01*
X89148133Y-74353538D01*
X89148124Y-74353533D01*
X89029744Y-74304499D01*
X89029738Y-74304497D01*
X88904071Y-74279500D01*
X88904069Y-74279500D01*
X88775931Y-74279500D01*
X88775929Y-74279500D01*
X88650261Y-74304497D01*
X88650255Y-74304499D01*
X88531876Y-74353533D01*
X88531873Y-74353534D01*
X88531873Y-74353535D01*
X88524287Y-74358603D01*
X88457611Y-74379480D01*
X88455399Y-74379500D01*
X87315929Y-74379500D01*
X87190261Y-74404497D01*
X87190255Y-74404499D01*
X87071875Y-74453533D01*
X87071866Y-74453538D01*
X86965331Y-74524723D01*
X86965327Y-74524726D01*
X86874726Y-74615327D01*
X86874723Y-74615331D01*
X86803538Y-74721866D01*
X86803533Y-74721875D01*
X86754499Y-74840255D01*
X86754497Y-74840261D01*
X86729500Y-74965928D01*
X86729500Y-74965931D01*
X86729500Y-75094069D01*
X86729500Y-75094071D01*
X86729499Y-75094071D01*
X86754497Y-75219738D01*
X86754499Y-75219744D01*
X86803533Y-75338124D01*
X86803538Y-75338133D01*
X86874723Y-75444668D01*
X86874726Y-75444672D01*
X86965327Y-75535273D01*
X86965331Y-75535276D01*
X87071866Y-75606461D01*
X87071870Y-75606463D01*
X87071873Y-75606465D01*
X87091409Y-75614557D01*
X87108805Y-75621763D01*
X87163208Y-75665604D01*
X87185273Y-75731898D01*
X87167994Y-75799598D01*
X87116856Y-75847208D01*
X87080750Y-75858797D01*
X86960589Y-75877829D01*
X86788363Y-75933787D01*
X86788360Y-75933788D01*
X86627002Y-76016006D01*
X86480505Y-76122441D01*
X86480500Y-76122445D01*
X86352445Y-76250500D01*
X86352441Y-76250505D01*
X86246006Y-76397002D01*
X86163788Y-76558360D01*
X86163787Y-76558363D01*
X86107829Y-76730589D01*
X86086972Y-76862271D01*
X86057042Y-76925405D01*
X85997731Y-76962336D01*
X85927868Y-76961338D01*
X85869636Y-76922728D01*
X85841522Y-76858764D01*
X85840499Y-76842872D01*
X85840499Y-76105143D01*
X85840499Y-76105136D01*
X85840497Y-76105117D01*
X85837586Y-76080012D01*
X85837585Y-76080010D01*
X85837585Y-76080009D01*
X85792206Y-75977235D01*
X85712765Y-75897794D01*
X85703522Y-75893713D01*
X85609992Y-75852415D01*
X85584865Y-75849500D01*
X83795143Y-75849500D01*
X83795117Y-75849502D01*
X83770012Y-75852413D01*
X83770008Y-75852415D01*
X83667235Y-75897793D01*
X83587794Y-75977234D01*
X83542415Y-76080006D01*
X83542415Y-76080008D01*
X83539500Y-76105131D01*
X77850500Y-76105131D01*
X77850500Y-75893713D01*
X77817246Y-75683757D01*
X77751557Y-75481588D01*
X77655051Y-75292184D01*
X77655049Y-75292181D01*
X77655048Y-75292179D01*
X77530109Y-75120213D01*
X77379786Y-74969890D01*
X77207820Y-74844951D01*
X77018414Y-74748444D01*
X77018413Y-74748443D01*
X77018412Y-74748443D01*
X76816243Y-74682754D01*
X76816241Y-74682753D01*
X76816240Y-74682753D01*
X76654957Y-74657208D01*
X76606287Y-74649500D01*
X76393713Y-74649500D01*
X76345042Y-74657208D01*
X76183760Y-74682753D01*
X76183757Y-74682754D01*
X76006770Y-74740261D01*
X75981585Y-74748444D01*
X75792179Y-74844951D01*
X75620213Y-74969890D01*
X75469890Y-75120213D01*
X75344951Y-75292179D01*
X75248444Y-75481585D01*
X75182753Y-75683760D01*
X75149500Y-75893713D01*
X73532342Y-75893713D01*
X73526655Y-73579046D01*
X89784524Y-73579046D01*
X89809522Y-73704713D01*
X89809524Y-73704719D01*
X89858558Y-73823099D01*
X89858563Y-73823108D01*
X89929748Y-73929643D01*
X89929751Y-73929647D01*
X90020352Y-74020248D01*
X90020356Y-74020251D01*
X90126891Y-74091436D01*
X90126897Y-74091439D01*
X90126898Y-74091440D01*
X90245281Y-74140476D01*
X90245285Y-74140476D01*
X90245286Y-74140477D01*
X90370953Y-74165475D01*
X90370956Y-74165475D01*
X90499096Y-74165475D01*
X90583640Y-74148657D01*
X90624769Y-74140476D01*
X90743152Y-74091440D01*
X90743157Y-74091436D01*
X90743160Y-74091435D01*
X90771642Y-74072404D01*
X90838319Y-74051525D01*
X90840534Y-74051505D01*
X91818364Y-74051505D01*
X91885403Y-74071190D01*
X91887217Y-74072378D01*
X91894838Y-74077470D01*
X92013221Y-74126506D01*
X92013225Y-74126506D01*
X92013226Y-74126507D01*
X92138893Y-74151505D01*
X92138896Y-74151505D01*
X92267036Y-74151505D01*
X92351580Y-74134687D01*
X92392709Y-74126506D01*
X92511092Y-74077470D01*
X92617634Y-74006281D01*
X92708241Y-73915674D01*
X92779430Y-73809132D01*
X92828466Y-73690749D01*
X92853465Y-73565074D01*
X92853465Y-73436936D01*
X92853465Y-73436933D01*
X92828467Y-73311266D01*
X92828466Y-73311265D01*
X92828466Y-73311261D01*
X92779430Y-73192878D01*
X92779429Y-73192877D01*
X92779426Y-73192871D01*
X92708241Y-73086336D01*
X92708238Y-73086332D01*
X92617637Y-72995731D01*
X92617633Y-72995728D01*
X92511098Y-72924543D01*
X92511089Y-72924538D01*
X92392709Y-72875504D01*
X92392703Y-72875502D01*
X92267036Y-72850505D01*
X92267034Y-72850505D01*
X92138896Y-72850505D01*
X92138894Y-72850505D01*
X92013226Y-72875502D01*
X92013220Y-72875504D01*
X91894841Y-72924538D01*
X91894838Y-72924539D01*
X91894838Y-72924540D01*
X91887252Y-72929608D01*
X91820576Y-72950485D01*
X91818364Y-72950505D01*
X90796654Y-72950505D01*
X90749653Y-72938732D01*
X90748780Y-72940841D01*
X90624769Y-72889474D01*
X90624763Y-72889472D01*
X90499096Y-72864475D01*
X90499094Y-72864475D01*
X90370956Y-72864475D01*
X90370954Y-72864475D01*
X90245286Y-72889472D01*
X90245280Y-72889474D01*
X90126900Y-72938508D01*
X90126891Y-72938513D01*
X90020356Y-73009698D01*
X90020352Y-73009701D01*
X89929751Y-73100302D01*
X89929748Y-73100306D01*
X89858563Y-73206841D01*
X89858558Y-73206850D01*
X89809524Y-73325230D01*
X89809522Y-73325236D01*
X89784525Y-73450903D01*
X89784525Y-73450906D01*
X89784525Y-73579044D01*
X89784525Y-73579046D01*
X89784524Y-73579046D01*
X73526655Y-73579046D01*
X73512497Y-67816231D01*
X73511668Y-67478992D01*
X106214500Y-67478992D01*
X106214500Y-67681007D01*
X106253907Y-67879119D01*
X106253909Y-67879127D01*
X106331212Y-68065752D01*
X106331217Y-68065762D01*
X106443441Y-68233718D01*
X106586281Y-68376558D01*
X106754237Y-68488782D01*
X106754241Y-68488784D01*
X106754244Y-68488786D01*
X106940873Y-68566091D01*
X107138992Y-68605499D01*
X107138996Y-68605500D01*
X107138997Y-68605500D01*
X107891004Y-68605500D01*
X107891005Y-68605499D01*
X108089127Y-68566091D01*
X108275756Y-68488786D01*
X108443718Y-68376558D01*
X108586558Y-68233718D01*
X108698786Y-68065756D01*
X108776091Y-67879127D01*
X108815500Y-67681003D01*
X108815500Y-67643766D01*
X110114500Y-67643766D01*
X110114500Y-67816233D01*
X110148143Y-67985366D01*
X110148146Y-67985378D01*
X110214138Y-68144698D01*
X110214145Y-68144711D01*
X110309954Y-68288098D01*
X110309957Y-68288102D01*
X110431897Y-68410042D01*
X110431901Y-68410045D01*
X110575288Y-68505854D01*
X110575301Y-68505861D01*
X110720708Y-68566090D01*
X110734626Y-68571855D01*
X110903766Y-68605499D01*
X110903769Y-68605500D01*
X110903771Y-68605500D01*
X111726231Y-68605500D01*
X111726232Y-68605499D01*
X111895374Y-68571855D01*
X112054705Y-68505858D01*
X112198099Y-68410045D01*
X112320045Y-68288099D01*
X112415858Y-68144705D01*
X112481855Y-67985374D01*
X112515500Y-67816229D01*
X112515500Y-67643771D01*
X112515500Y-67643768D01*
X112515499Y-67643766D01*
X112481856Y-67474633D01*
X112481855Y-67474626D01*
X112481853Y-67474621D01*
X112415861Y-67315301D01*
X112415854Y-67315288D01*
X112320045Y-67171901D01*
X112320042Y-67171897D01*
X112198102Y-67049957D01*
X112198098Y-67049954D01*
X112054711Y-66954145D01*
X112054698Y-66954138D01*
X111895378Y-66888146D01*
X111895366Y-66888143D01*
X111726232Y-66854500D01*
X111726229Y-66854500D01*
X110903771Y-66854500D01*
X110903768Y-66854500D01*
X110734633Y-66888143D01*
X110734621Y-66888146D01*
X110575301Y-66954138D01*
X110575288Y-66954145D01*
X110431901Y-67049954D01*
X110431897Y-67049957D01*
X110309957Y-67171897D01*
X110309954Y-67171901D01*
X110214145Y-67315288D01*
X110214138Y-67315301D01*
X110148146Y-67474621D01*
X110148143Y-67474633D01*
X110114500Y-67643766D01*
X108815500Y-67643766D01*
X108815500Y-67478997D01*
X108776091Y-67280873D01*
X108733354Y-67177697D01*
X108725885Y-67108227D01*
X108757160Y-67045748D01*
X108800457Y-67015685D01*
X108896811Y-66975775D01*
X109011542Y-66899114D01*
X109109114Y-66801542D01*
X109185775Y-66686811D01*
X109192236Y-66671214D01*
X109238578Y-66559332D01*
X109238580Y-66559328D01*
X109252975Y-66486959D01*
X109265500Y-66423995D01*
X109265500Y-66286004D01*
X109238581Y-66150677D01*
X109238580Y-66150676D01*
X109238580Y-66150672D01*
X109238578Y-66150667D01*
X109185778Y-66023195D01*
X109185771Y-66023182D01*
X109109114Y-65908458D01*
X109109111Y-65908454D01*
X109011545Y-65810888D01*
X109011541Y-65810885D01*
X108896817Y-65734228D01*
X108896804Y-65734221D01*
X108769332Y-65681421D01*
X108769322Y-65681418D01*
X108633995Y-65654500D01*
X108633993Y-65654500D01*
X108496007Y-65654500D01*
X108496005Y-65654500D01*
X108360677Y-65681418D01*
X108360667Y-65681421D01*
X108233195Y-65734221D01*
X108233182Y-65734228D01*
X108118458Y-65810885D01*
X108118454Y-65810888D01*
X108020888Y-65908454D01*
X108020885Y-65908458D01*
X107944228Y-66023182D01*
X107944221Y-66023195D01*
X107891421Y-66150667D01*
X107891418Y-66150677D01*
X107864500Y-66286004D01*
X107864500Y-66430085D01*
X107861710Y-66430085D01*
X107850942Y-66486959D01*
X107802892Y-66537683D01*
X107740541Y-66554500D01*
X107138992Y-66554500D01*
X106940880Y-66593907D01*
X106940872Y-66593909D01*
X106754247Y-66671212D01*
X106754237Y-66671217D01*
X106586281Y-66783441D01*
X106443441Y-66926281D01*
X106331217Y-67094237D01*
X106331212Y-67094247D01*
X106253909Y-67280872D01*
X106253907Y-67280880D01*
X106214500Y-67478992D01*
X73511668Y-67478992D01*
X73511654Y-67473210D01*
X73500500Y-62933502D01*
X73500500Y-60028992D01*
X106214500Y-60028992D01*
X106214500Y-60231007D01*
X106253907Y-60429119D01*
X106253909Y-60429127D01*
X106331212Y-60615752D01*
X106331217Y-60615762D01*
X106443441Y-60783718D01*
X106586281Y-60926558D01*
X106754237Y-61038782D01*
X106754241Y-61038784D01*
X106754244Y-61038786D01*
X106940873Y-61116091D01*
X107114700Y-61150667D01*
X107138992Y-61155499D01*
X107138996Y-61155500D01*
X107138997Y-61155500D01*
X107740541Y-61155500D01*
X107807580Y-61175185D01*
X107853335Y-61227989D01*
X107861980Y-61279915D01*
X107864500Y-61279915D01*
X107864500Y-61286007D01*
X107864500Y-61423993D01*
X107864500Y-61423995D01*
X107864499Y-61423995D01*
X107891418Y-61559322D01*
X107891421Y-61559332D01*
X107944221Y-61686804D01*
X107944228Y-61686817D01*
X108020885Y-61801541D01*
X108020888Y-61801545D01*
X108118454Y-61899111D01*
X108118458Y-61899114D01*
X108233182Y-61975771D01*
X108233195Y-61975778D01*
X108360667Y-62028578D01*
X108360672Y-62028580D01*
X108360676Y-62028580D01*
X108360677Y-62028581D01*
X108496004Y-62055500D01*
X108496007Y-62055500D01*
X108633995Y-62055500D01*
X108725041Y-62037389D01*
X108769328Y-62028580D01*
X108896811Y-61975775D01*
X109011542Y-61899114D01*
X109109114Y-61801542D01*
X109185775Y-61686811D01*
X109238580Y-61559328D01*
X109265500Y-61423993D01*
X109265500Y-61286007D01*
X109265500Y-61286004D01*
X109238581Y-61150677D01*
X109238580Y-61150676D01*
X109238580Y-61150672D01*
X109192236Y-61038787D01*
X109185778Y-61023195D01*
X109185771Y-61023182D01*
X109109114Y-60908458D01*
X109109111Y-60908454D01*
X109011545Y-60810888D01*
X109011541Y-60810885D01*
X108896817Y-60734228D01*
X108896804Y-60734221D01*
X108800462Y-60694316D01*
X108746058Y-60650476D01*
X108723993Y-60584182D01*
X108733351Y-60532307D01*
X108776091Y-60429127D01*
X108815500Y-60231003D01*
X108815500Y-60028997D01*
X108815345Y-60028222D01*
X108792203Y-59911870D01*
X108788602Y-59893766D01*
X110114500Y-59893766D01*
X110114500Y-60066233D01*
X110148143Y-60235366D01*
X110148146Y-60235378D01*
X110214138Y-60394698D01*
X110214145Y-60394711D01*
X110309954Y-60538098D01*
X110309957Y-60538102D01*
X110431897Y-60660042D01*
X110431901Y-60660045D01*
X110575288Y-60755854D01*
X110575301Y-60755861D01*
X110708142Y-60810885D01*
X110734626Y-60821855D01*
X110903766Y-60855499D01*
X110903769Y-60855500D01*
X110903771Y-60855500D01*
X111726231Y-60855500D01*
X111726232Y-60855499D01*
X111895374Y-60821855D01*
X112054705Y-60755858D01*
X112198099Y-60660045D01*
X112320045Y-60538099D01*
X112415858Y-60394705D01*
X112481855Y-60235374D01*
X112515500Y-60066229D01*
X112515500Y-59893771D01*
X112515500Y-59893768D01*
X112515499Y-59893766D01*
X112502989Y-59830873D01*
X112481855Y-59724626D01*
X112448557Y-59644237D01*
X112415861Y-59565301D01*
X112415854Y-59565288D01*
X112320045Y-59421901D01*
X112320042Y-59421897D01*
X112198102Y-59299957D01*
X112198098Y-59299954D01*
X112054711Y-59204145D01*
X112054698Y-59204138D01*
X111895378Y-59138146D01*
X111895366Y-59138143D01*
X111726232Y-59104500D01*
X111726229Y-59104500D01*
X110903771Y-59104500D01*
X110903768Y-59104500D01*
X110734633Y-59138143D01*
X110734621Y-59138146D01*
X110575301Y-59204138D01*
X110575288Y-59204145D01*
X110431901Y-59299954D01*
X110431897Y-59299957D01*
X110309957Y-59421897D01*
X110309954Y-59421901D01*
X110214145Y-59565288D01*
X110214138Y-59565301D01*
X110148146Y-59724621D01*
X110148143Y-59724633D01*
X110114500Y-59893766D01*
X108788602Y-59893766D01*
X108776092Y-59830880D01*
X108776091Y-59830873D01*
X108698786Y-59644244D01*
X108698784Y-59644241D01*
X108698782Y-59644237D01*
X108586558Y-59476281D01*
X108443718Y-59333441D01*
X108275762Y-59221217D01*
X108275752Y-59221212D01*
X108089127Y-59143909D01*
X108089119Y-59143907D01*
X107891007Y-59104500D01*
X107891003Y-59104500D01*
X107138997Y-59104500D01*
X107138992Y-59104500D01*
X106940880Y-59143907D01*
X106940872Y-59143909D01*
X106754247Y-59221212D01*
X106754237Y-59221217D01*
X106586281Y-59333441D01*
X106443441Y-59476281D01*
X106331217Y-59644237D01*
X106331212Y-59644247D01*
X106253909Y-59830872D01*
X106253907Y-59830880D01*
X106214500Y-60028992D01*
X73500500Y-60028992D01*
X73500500Y-58568995D01*
X74969499Y-58568995D01*
X74996418Y-58704322D01*
X74996421Y-58704332D01*
X75049221Y-58831804D01*
X75049228Y-58831817D01*
X75125885Y-58946541D01*
X75125888Y-58946545D01*
X75223454Y-59044111D01*
X75223458Y-59044114D01*
X75338182Y-59120771D01*
X75338195Y-59120778D01*
X75465667Y-59173578D01*
X75465672Y-59173580D01*
X75465676Y-59173580D01*
X75465677Y-59173581D01*
X75601004Y-59200500D01*
X75601007Y-59200500D01*
X75738995Y-59200500D01*
X75830041Y-59182389D01*
X75874328Y-59173580D01*
X76001811Y-59120775D01*
X76116542Y-59044114D01*
X76214114Y-58946542D01*
X76290775Y-58831811D01*
X76343580Y-58704328D01*
X76370500Y-58568993D01*
X76370500Y-58431007D01*
X76370500Y-58431004D01*
X76343581Y-58295677D01*
X76343580Y-58295676D01*
X76343580Y-58295672D01*
X76343578Y-58295667D01*
X76290778Y-58168195D01*
X76290771Y-58168182D01*
X76214114Y-58053458D01*
X76214111Y-58053454D01*
X76116545Y-57955888D01*
X76116541Y-57955885D01*
X76001817Y-57879228D01*
X76001804Y-57879221D01*
X75874332Y-57826421D01*
X75874322Y-57826418D01*
X75738995Y-57799500D01*
X75738993Y-57799500D01*
X75601007Y-57799500D01*
X75601005Y-57799500D01*
X75465677Y-57826418D01*
X75465667Y-57826421D01*
X75338195Y-57879221D01*
X75338182Y-57879228D01*
X75223458Y-57955885D01*
X75223454Y-57955888D01*
X75125888Y-58053454D01*
X75125885Y-58053458D01*
X75049228Y-58168182D01*
X75049221Y-58168195D01*
X74996421Y-58295667D01*
X74996418Y-58295677D01*
X74969500Y-58431004D01*
X74969500Y-58431007D01*
X74969500Y-58568993D01*
X74969500Y-58568995D01*
X74969499Y-58568995D01*
X73500500Y-58568995D01*
X73500500Y-55568995D01*
X74969499Y-55568995D01*
X74996418Y-55704322D01*
X74996421Y-55704332D01*
X75049221Y-55831804D01*
X75049228Y-55831817D01*
X75125885Y-55946541D01*
X75125888Y-55946545D01*
X75223454Y-56044111D01*
X75223458Y-56044114D01*
X75338182Y-56120771D01*
X75338195Y-56120778D01*
X75465667Y-56173578D01*
X75465672Y-56173580D01*
X75465676Y-56173580D01*
X75465677Y-56173581D01*
X75601004Y-56200500D01*
X75601007Y-56200500D01*
X75738995Y-56200500D01*
X75830041Y-56182389D01*
X75874328Y-56173580D01*
X76001811Y-56120775D01*
X76116542Y-56044114D01*
X76214114Y-55946542D01*
X76290775Y-55831811D01*
X76343580Y-55704328D01*
X76370500Y-55568993D01*
X76370500Y-55431007D01*
X76370500Y-55431004D01*
X76343581Y-55295677D01*
X76343580Y-55295676D01*
X76343580Y-55295672D01*
X76343578Y-55295667D01*
X76290778Y-55168195D01*
X76290771Y-55168182D01*
X76214114Y-55053458D01*
X76214111Y-55053454D01*
X76116545Y-54955888D01*
X76116541Y-54955885D01*
X76001817Y-54879228D01*
X76001804Y-54879221D01*
X75874332Y-54826421D01*
X75874322Y-54826418D01*
X75738995Y-54799500D01*
X75738993Y-54799500D01*
X75601007Y-54799500D01*
X75601005Y-54799500D01*
X75465677Y-54826418D01*
X75465667Y-54826421D01*
X75338195Y-54879221D01*
X75338182Y-54879228D01*
X75223458Y-54955885D01*
X75223454Y-54955888D01*
X75125888Y-55053454D01*
X75125885Y-55053458D01*
X75049228Y-55168182D01*
X75049221Y-55168195D01*
X74996421Y-55295667D01*
X74996418Y-55295677D01*
X74969500Y-55431004D01*
X74969500Y-55431007D01*
X74969500Y-55568993D01*
X74969500Y-55568995D01*
X74969499Y-55568995D01*
X73500500Y-55568995D01*
X73500500Y-49503246D01*
X73500670Y-49496756D01*
X73506071Y-49393713D01*
X75149500Y-49393713D01*
X75149500Y-49606286D01*
X75182753Y-49816239D01*
X75182753Y-49816241D01*
X75182754Y-49816243D01*
X75231286Y-49965609D01*
X75248444Y-50018414D01*
X75344951Y-50207820D01*
X75469890Y-50379786D01*
X75620213Y-50530109D01*
X75792179Y-50655048D01*
X75792181Y-50655049D01*
X75792184Y-50655051D01*
X75981588Y-50751557D01*
X76183757Y-50817246D01*
X76393713Y-50850500D01*
X76393714Y-50850500D01*
X76606286Y-50850500D01*
X76606287Y-50850500D01*
X76816243Y-50817246D01*
X77018412Y-50751557D01*
X77207816Y-50655051D01*
X77279467Y-50602994D01*
X77379786Y-50530109D01*
X77379788Y-50530106D01*
X77379792Y-50530104D01*
X77530104Y-50379792D01*
X77530106Y-50379788D01*
X77530109Y-50379786D01*
X77655048Y-50207820D01*
X77655047Y-50207820D01*
X77655051Y-50207816D01*
X77751557Y-50018412D01*
X77786962Y-49909448D01*
X85769500Y-49909448D01*
X85769500Y-50090551D01*
X85797829Y-50269410D01*
X85853787Y-50441636D01*
X85853788Y-50441639D01*
X85936006Y-50602997D01*
X86042441Y-50749494D01*
X86042445Y-50749499D01*
X86170500Y-50877554D01*
X86170505Y-50877558D01*
X86298287Y-50970396D01*
X86317006Y-50983996D01*
X86393094Y-51022765D01*
X86478360Y-51066211D01*
X86478363Y-51066212D01*
X86564476Y-51094191D01*
X86650591Y-51122171D01*
X86733429Y-51135291D01*
X86829449Y-51150500D01*
X86829454Y-51150500D01*
X87010551Y-51150500D01*
X87097259Y-51136765D01*
X87189409Y-51122171D01*
X87361639Y-51066211D01*
X87522994Y-50983996D01*
X87669501Y-50877553D01*
X87797553Y-50749501D01*
X87903996Y-50602994D01*
X87986211Y-50441639D01*
X88042171Y-50269409D01*
X88063027Y-50137729D01*
X88067527Y-50109321D01*
X88097456Y-50046186D01*
X88156768Y-50009255D01*
X88226630Y-50010253D01*
X88284863Y-50048863D01*
X88312473Y-50109321D01*
X88337829Y-50269410D01*
X88393787Y-50441636D01*
X88393788Y-50441639D01*
X88476006Y-50602997D01*
X88582441Y-50749494D01*
X88582445Y-50749499D01*
X88710500Y-50877554D01*
X88710505Y-50877558D01*
X88838287Y-50970396D01*
X88857006Y-50983996D01*
X88933094Y-51022765D01*
X89018360Y-51066211D01*
X89018363Y-51066212D01*
X89104476Y-51094191D01*
X89190591Y-51122171D01*
X89273429Y-51135291D01*
X89369449Y-51150500D01*
X89369454Y-51150500D01*
X89550551Y-51150500D01*
X89637259Y-51136765D01*
X89729409Y-51122171D01*
X89901639Y-51066211D01*
X90062994Y-50983996D01*
X90209501Y-50877553D01*
X90337553Y-50749501D01*
X90443996Y-50602994D01*
X90526211Y-50441639D01*
X90582171Y-50269409D01*
X90603027Y-50137729D01*
X90632956Y-50074595D01*
X90692267Y-50037663D01*
X90762130Y-50038661D01*
X90820363Y-50077271D01*
X90848477Y-50141234D01*
X90849500Y-50157127D01*
X90849500Y-50894856D01*
X90849502Y-50894882D01*
X90852413Y-50919987D01*
X90852415Y-50919991D01*
X90897793Y-51022764D01*
X90897794Y-51022765D01*
X90977235Y-51102206D01*
X91080009Y-51147585D01*
X91105135Y-51150500D01*
X92894864Y-51150499D01*
X92894879Y-51150497D01*
X92894882Y-51150497D01*
X92919987Y-51147586D01*
X92919988Y-51147585D01*
X92919991Y-51147585D01*
X93022765Y-51102206D01*
X93102206Y-51022765D01*
X93147585Y-50919991D01*
X93150500Y-50894865D01*
X93150499Y-49909448D01*
X98269500Y-49909448D01*
X98269500Y-50090551D01*
X98297829Y-50269410D01*
X98353787Y-50441636D01*
X98353788Y-50441639D01*
X98436006Y-50602997D01*
X98542441Y-50749494D01*
X98542445Y-50749499D01*
X98670500Y-50877554D01*
X98670505Y-50877558D01*
X98798287Y-50970396D01*
X98817006Y-50983996D01*
X98893094Y-51022765D01*
X98978360Y-51066211D01*
X98978363Y-51066212D01*
X99064476Y-51094191D01*
X99150591Y-51122171D01*
X99233429Y-51135291D01*
X99329449Y-51150500D01*
X99329454Y-51150500D01*
X99510551Y-51150500D01*
X99597259Y-51136765D01*
X99689409Y-51122171D01*
X99861639Y-51066211D01*
X100022994Y-50983996D01*
X100169501Y-50877553D01*
X100297553Y-50749501D01*
X100403996Y-50602994D01*
X100486211Y-50441639D01*
X100542171Y-50269409D01*
X100563027Y-50137729D01*
X100567527Y-50109321D01*
X100597456Y-50046186D01*
X100656768Y-50009255D01*
X100726630Y-50010253D01*
X100784863Y-50048863D01*
X100812473Y-50109321D01*
X100837829Y-50269410D01*
X100893787Y-50441636D01*
X100893788Y-50441639D01*
X100976006Y-50602997D01*
X101082441Y-50749494D01*
X101082445Y-50749499D01*
X101210500Y-50877554D01*
X101210505Y-50877558D01*
X101338287Y-50970396D01*
X101357006Y-50983996D01*
X101433094Y-51022765D01*
X101518360Y-51066211D01*
X101518363Y-51066212D01*
X101604476Y-51094191D01*
X101690591Y-51122171D01*
X101773429Y-51135291D01*
X101869449Y-51150500D01*
X101869454Y-51150500D01*
X102050551Y-51150500D01*
X102137259Y-51136765D01*
X102229409Y-51122171D01*
X102401639Y-51066211D01*
X102562994Y-50983996D01*
X102709501Y-50877553D01*
X102837553Y-50749501D01*
X102943996Y-50602994D01*
X103026211Y-50441639D01*
X103082171Y-50269409D01*
X103103027Y-50137729D01*
X103132956Y-50074595D01*
X103192267Y-50037663D01*
X103262130Y-50038661D01*
X103320363Y-50077271D01*
X103348477Y-50141234D01*
X103349500Y-50157127D01*
X103349500Y-50894856D01*
X103349502Y-50894882D01*
X103352413Y-50919987D01*
X103352415Y-50919991D01*
X103397793Y-51022764D01*
X103397794Y-51022765D01*
X103477235Y-51102206D01*
X103580009Y-51147585D01*
X103605135Y-51150500D01*
X105394864Y-51150499D01*
X105394879Y-51150497D01*
X105394882Y-51150497D01*
X105419987Y-51147586D01*
X105419988Y-51147585D01*
X105419991Y-51147585D01*
X105522765Y-51102206D01*
X105602206Y-51022765D01*
X105647585Y-50919991D01*
X105650500Y-50894865D01*
X105650499Y-49393713D01*
X109149500Y-49393713D01*
X109149500Y-49606286D01*
X109182753Y-49816239D01*
X109182753Y-49816241D01*
X109182754Y-49816243D01*
X109231286Y-49965609D01*
X109248444Y-50018414D01*
X109344951Y-50207820D01*
X109469890Y-50379786D01*
X109620213Y-50530109D01*
X109792179Y-50655048D01*
X109792181Y-50655049D01*
X109792184Y-50655051D01*
X109981588Y-50751557D01*
X110183757Y-50817246D01*
X110393713Y-50850500D01*
X110393714Y-50850500D01*
X110606286Y-50850500D01*
X110606287Y-50850500D01*
X110816243Y-50817246D01*
X111018412Y-50751557D01*
X111207816Y-50655051D01*
X111279467Y-50602994D01*
X111379786Y-50530109D01*
X111379788Y-50530106D01*
X111379792Y-50530104D01*
X111530104Y-50379792D01*
X111530106Y-50379788D01*
X111530109Y-50379786D01*
X111655048Y-50207820D01*
X111655047Y-50207820D01*
X111655051Y-50207816D01*
X111751557Y-50018412D01*
X111817246Y-49816243D01*
X111850500Y-49606287D01*
X111850500Y-49393713D01*
X111817246Y-49183757D01*
X111751557Y-48981588D01*
X111655051Y-48792184D01*
X111655049Y-48792181D01*
X111655048Y-48792179D01*
X111530109Y-48620213D01*
X111379786Y-48469890D01*
X111207820Y-48344951D01*
X111018414Y-48248444D01*
X111018413Y-48248443D01*
X111018412Y-48248443D01*
X110816243Y-48182754D01*
X110816241Y-48182753D01*
X110816240Y-48182753D01*
X110654957Y-48157208D01*
X110606287Y-48149500D01*
X110393713Y-48149500D01*
X110345042Y-48157208D01*
X110183760Y-48182753D01*
X109981585Y-48248444D01*
X109792179Y-48344951D01*
X109620213Y-48469890D01*
X109469890Y-48620213D01*
X109344951Y-48792179D01*
X109248444Y-48981585D01*
X109182753Y-49183760D01*
X109149500Y-49393713D01*
X105650499Y-49393713D01*
X105650499Y-49105136D01*
X105650497Y-49105117D01*
X105647586Y-49080012D01*
X105647585Y-49080010D01*
X105647585Y-49080009D01*
X105602206Y-48977235D01*
X105522765Y-48897794D01*
X105515710Y-48894679D01*
X105419992Y-48852415D01*
X105394865Y-48849500D01*
X103605143Y-48849500D01*
X103605117Y-48849502D01*
X103580012Y-48852413D01*
X103580008Y-48852415D01*
X103477235Y-48897793D01*
X103397794Y-48977234D01*
X103352415Y-49080006D01*
X103352415Y-49080008D01*
X103349500Y-49105131D01*
X103349500Y-49842871D01*
X103329815Y-49909910D01*
X103277011Y-49955665D01*
X103207853Y-49965609D01*
X103144297Y-49936584D01*
X103106523Y-49877806D01*
X103103027Y-49862269D01*
X103095736Y-49816239D01*
X103082171Y-49730591D01*
X103026211Y-49558361D01*
X103026211Y-49558360D01*
X102994821Y-49496755D01*
X102943996Y-49397006D01*
X102904577Y-49342750D01*
X102837558Y-49250505D01*
X102837554Y-49250500D01*
X102709499Y-49122445D01*
X102709494Y-49122441D01*
X102562997Y-49016006D01*
X102562996Y-49016005D01*
X102562994Y-49016004D01*
X102511300Y-48989664D01*
X102401639Y-48933788D01*
X102401636Y-48933787D01*
X102229410Y-48877829D01*
X102050551Y-48849500D01*
X102050546Y-48849500D01*
X101869454Y-48849500D01*
X101869449Y-48849500D01*
X101690589Y-48877829D01*
X101518363Y-48933787D01*
X101518360Y-48933788D01*
X101357002Y-49016006D01*
X101210505Y-49122441D01*
X101210500Y-49122445D01*
X101082445Y-49250500D01*
X101082441Y-49250505D01*
X100976006Y-49397002D01*
X100893788Y-49558360D01*
X100893787Y-49558363D01*
X100837829Y-49730589D01*
X100812473Y-49890678D01*
X100782544Y-49953813D01*
X100723232Y-49990744D01*
X100653369Y-49989746D01*
X100595137Y-49951136D01*
X100567527Y-49890678D01*
X100553740Y-49803639D01*
X100542171Y-49730591D01*
X100486211Y-49558361D01*
X100486211Y-49558360D01*
X100454821Y-49496755D01*
X100403996Y-49397006D01*
X100364577Y-49342750D01*
X100297558Y-49250505D01*
X100297554Y-49250500D01*
X100169499Y-49122445D01*
X100169494Y-49122441D01*
X100022997Y-49016006D01*
X100022996Y-49016005D01*
X100022994Y-49016004D01*
X99971300Y-48989664D01*
X99861639Y-48933788D01*
X99861636Y-48933787D01*
X99689410Y-48877829D01*
X99510551Y-48849500D01*
X99510546Y-48849500D01*
X99329454Y-48849500D01*
X99329449Y-48849500D01*
X99150589Y-48877829D01*
X98978363Y-48933787D01*
X98978360Y-48933788D01*
X98817002Y-49016006D01*
X98670505Y-49122441D01*
X98670500Y-49122445D01*
X98542445Y-49250500D01*
X98542441Y-49250505D01*
X98436006Y-49397002D01*
X98353788Y-49558360D01*
X98353787Y-49558363D01*
X98297829Y-49730589D01*
X98269500Y-49909448D01*
X93150499Y-49909448D01*
X93150499Y-49105136D01*
X93150497Y-49105117D01*
X93147586Y-49080012D01*
X93147585Y-49080010D01*
X93147585Y-49080009D01*
X93102206Y-48977235D01*
X93022765Y-48897794D01*
X93015710Y-48894679D01*
X92919992Y-48852415D01*
X92894865Y-48849500D01*
X91105143Y-48849500D01*
X91105117Y-48849502D01*
X91080012Y-48852413D01*
X91080008Y-48852415D01*
X90977235Y-48897793D01*
X90897794Y-48977234D01*
X90852415Y-49080006D01*
X90852415Y-49080008D01*
X90849500Y-49105131D01*
X90849500Y-49842871D01*
X90829815Y-49909910D01*
X90777011Y-49955665D01*
X90707853Y-49965609D01*
X90644297Y-49936584D01*
X90606523Y-49877806D01*
X90603027Y-49862269D01*
X90595736Y-49816239D01*
X90582171Y-49730591D01*
X90526211Y-49558361D01*
X90526211Y-49558360D01*
X90494821Y-49496755D01*
X90443996Y-49397006D01*
X90404577Y-49342750D01*
X90337558Y-49250505D01*
X90337554Y-49250500D01*
X90209499Y-49122445D01*
X90209494Y-49122441D01*
X90062997Y-49016006D01*
X90062996Y-49016005D01*
X90062994Y-49016004D01*
X90011300Y-48989664D01*
X89901639Y-48933788D01*
X89901636Y-48933787D01*
X89729410Y-48877829D01*
X89550551Y-48849500D01*
X89550546Y-48849500D01*
X89369454Y-48849500D01*
X89369449Y-48849500D01*
X89190589Y-48877829D01*
X89018363Y-48933787D01*
X89018360Y-48933788D01*
X88857002Y-49016006D01*
X88710505Y-49122441D01*
X88710500Y-49122445D01*
X88582445Y-49250500D01*
X88582441Y-49250505D01*
X88476006Y-49397002D01*
X88393788Y-49558360D01*
X88393787Y-49558363D01*
X88337829Y-49730589D01*
X88312473Y-49890678D01*
X88282544Y-49953813D01*
X88223232Y-49990744D01*
X88153369Y-49989746D01*
X88095137Y-49951136D01*
X88067527Y-49890678D01*
X88053740Y-49803639D01*
X88042171Y-49730591D01*
X87986211Y-49558361D01*
X87986211Y-49558360D01*
X87954821Y-49496755D01*
X87903996Y-49397006D01*
X87864577Y-49342750D01*
X87797558Y-49250505D01*
X87797554Y-49250500D01*
X87669499Y-49122445D01*
X87669494Y-49122441D01*
X87522997Y-49016006D01*
X87522996Y-49016005D01*
X87522994Y-49016004D01*
X87471300Y-48989664D01*
X87361639Y-48933788D01*
X87361636Y-48933787D01*
X87189410Y-48877829D01*
X87010551Y-48849500D01*
X87010546Y-48849500D01*
X86829454Y-48849500D01*
X86829449Y-48849500D01*
X86650589Y-48877829D01*
X86478363Y-48933787D01*
X86478360Y-48933788D01*
X86317002Y-49016006D01*
X86170505Y-49122441D01*
X86170500Y-49122445D01*
X86042445Y-49250500D01*
X86042441Y-49250505D01*
X85936006Y-49397002D01*
X85853788Y-49558360D01*
X85853787Y-49558363D01*
X85797829Y-49730589D01*
X85769500Y-49909448D01*
X77786962Y-49909448D01*
X77817246Y-49816243D01*
X77850500Y-49606287D01*
X77850500Y-49393713D01*
X77817246Y-49183757D01*
X77751557Y-48981588D01*
X77655051Y-48792184D01*
X77655049Y-48792181D01*
X77655048Y-48792179D01*
X77530109Y-48620213D01*
X77379786Y-48469890D01*
X77207820Y-48344951D01*
X77018414Y-48248444D01*
X77018413Y-48248443D01*
X77018412Y-48248443D01*
X76816243Y-48182754D01*
X76816241Y-48182753D01*
X76816240Y-48182753D01*
X76654957Y-48157208D01*
X76606287Y-48149500D01*
X76393713Y-48149500D01*
X76345042Y-48157208D01*
X76183760Y-48182753D01*
X75981585Y-48248444D01*
X75792179Y-48344951D01*
X75620213Y-48469890D01*
X75469890Y-48620213D01*
X75344951Y-48792179D01*
X75248444Y-48981585D01*
X75182753Y-49183760D01*
X75149500Y-49393713D01*
X73506071Y-49393713D01*
X73506666Y-49382351D01*
X73515184Y-49219817D01*
X73515794Y-49212424D01*
X73522814Y-49150112D01*
X73523553Y-49144658D01*
X73561850Y-48902860D01*
X73563420Y-48894721D01*
X73576105Y-48839144D01*
X73577172Y-48834844D01*
X73642289Y-48591827D01*
X73645007Y-48583016D01*
X73659943Y-48540331D01*
X73661178Y-48536964D01*
X73755746Y-48290603D01*
X73759762Y-48281305D01*
X73769729Y-48260608D01*
X73770863Y-48258318D01*
X73899415Y-48006023D01*
X73905891Y-47994808D01*
X74069819Y-47742380D01*
X74077434Y-47731899D01*
X74266858Y-47497979D01*
X74275525Y-47488354D01*
X74488354Y-47275525D01*
X74497979Y-47266858D01*
X74731899Y-47077434D01*
X74742380Y-47069819D01*
X74994808Y-46905891D01*
X75006023Y-46899415D01*
X75258318Y-46770863D01*
X75260608Y-46769729D01*
X75281305Y-46759762D01*
X75290603Y-46755746D01*
X75536964Y-46661178D01*
X75540331Y-46659943D01*
X75583016Y-46645007D01*
X75591827Y-46642289D01*
X75834844Y-46577172D01*
X75839144Y-46576105D01*
X75894721Y-46563420D01*
X75902860Y-46561850D01*
X76144658Y-46523553D01*
X76150112Y-46522814D01*
X76212430Y-46515793D01*
X76219811Y-46515184D01*
X76496756Y-46500669D01*
X76503246Y-46500500D01*
X110496754Y-46500500D01*
X110503243Y-46500669D01*
G37*
%TD.AperFunction*%
%TD*%
M02*
